<svg width="62" height="61" viewBox="0 0 62 61" fill="none" xmlns="http://www.w3.org/2000/svg">
<path d="M36.4513 45.8875C35.8496 45.7829 35.8496 44.9189 36.4513 44.8144C37.5163 44.6281 38.5019 44.1293 39.2827 43.3814C40.0636 42.6335 40.6044 41.6704 40.8364 40.6144L40.8724 40.4481C41.0027 39.8532 41.8496 39.8498 41.985 40.4429L42.0296 40.6366C42.269 41.6886 42.8143 42.6462 43.5967 43.389C44.3791 44.1317 45.3638 44.6265 46.4267 44.8109C47.0319 44.9155 47.0319 45.7846 46.4267 45.8909C45.364 46.0753 44.3795 46.5698 43.5971 47.3122C42.8147 48.0547 42.2693 49.0119 42.0296 50.0635L41.985 50.2555C41.8496 50.8486 41.0027 50.8452 40.8724 50.2504L40.8381 50.0858C40.6059 49.0293 40.0646 48.0658 39.2831 47.3179C38.5016 46.57 37.5152 46.0715 36.4496 45.8858L36.4513 45.8875Z" stroke="url(#paint0_linear_9113_30459)" stroke-width="1.5" stroke-linecap="round" stroke-linejoin="round"/>
<path d="M41 36C36.05 36 32 40.05 32 45C32 49.95 36.05 54 41 54C45.95 54 50 49.95 50 45C50 40.05 45.95 36 41 36ZM41 38C42.55 38 44 38.55 45.2 39.4L35.4 49.2C34.55 48 34 46.55 34 45C34 41.15 37.15 38 41 38ZM41 52C39.45 52 38 51.45 36.8 50.6L46.6 40.8C47.45 42 48 43.45 48 45C48 48.85 44.85 52 41 52Z" fill="#D50000"/>
<defs>
<linearGradient id="paint0_linear_9113_30459" x1="37.8134" y1="41.4854" x2="46.3387" y2="47.6697" gradientUnits="userSpaceOnUse">
<stop stop-color="#60BEE2"/>
<stop offset="0.167" stop-color="#5E4D84"/>
<stop offset="0.334" stop-color="#C05B95"/>
<stop offset="0.501" stop-color="#8559AD"/>
<stop offset="0.668" stop-color="#DCAF72"/>
<stop offset="0.835" stop-color="#BE5AB6"/>
<stop offset="1" stop-color="#8FC2DA"/>
</linearGradient>
</defs>
</svg>
