<svg width="19" height="21" viewBox="0 0 19 21" fill="none" xmlns="http://www.w3.org/2000/svg">
<path d="M16.8494 13.837C16.8128 13.8446 16.7578 13.8559 16.714 13.8263C16.714 13.8263 16.2709 13.8018 16.2307 13.7908C16.0916 13.7616 15.9709 13.7286 15.8318 13.6993C15.5684 13.6185 15.3343 13.4931 15.1151 13.3453C14.8519 13.168 14.6218 12.9646 14.4211 12.7166C14.2205 12.4685 14.2205 12.4685 14.155 12.3277C14.0895 12.1869 14.0531 12.0979 13.9912 11.9756C13.9294 11.8533 13.9149 11.7791 13.8419 11.6977C13.7215 11.5682 13.5349 11.4909 13.3517 11.5286C13.1502 11.5701 13.0069 11.7153 12.9478 11.9011C12.8886 12.0869 12.9361 12.135 12.9211 12.2538C12.913 12.5062 12.883 12.7439 12.8163 12.9891C12.7533 13.2529 12.6317 13.5094 12.5064 13.7474C12.2193 14.2309 11.8043 14.6442 11.2982 14.8835C11.1955 14.9432 11.0891 14.9844 10.9864 15.0441C10.8837 15.1038 10.8287 15.1152 10.7663 15.1859C10.6561 15.305 10.6152 15.4871 10.6477 15.654C10.6765 15.8024 10.7823 15.9542 10.9102 16.0243C11.104 16.1388 11.3202 16.0749 11.5326 16.0891C11.6681 16.0998 11.8035 16.1105 11.9243 16.1435C12.1841 16.2057 12.4292 16.2903 12.6632 16.4157C13.1276 16.6481 13.5256 17.0291 13.8026 17.4736C13.9375 17.6773 14.0174 17.8923 14.0974 18.1074C14.1773 18.3224 14.459 18.3994 14.6606 18.3579C14.8255 18.324 14.9907 18.1935 15.0534 18.0263C15.094 17.9408 15.0651 17.7924 15.0654 17.6959C15.0696 17.5214 15.0774 17.3655 15.1035 17.2058C15.1332 17.0646 15.1665 16.942 15.1999 16.8194C15.2848 16.5704 15.3881 16.3177 15.5353 16.0945C15.7119 15.8266 15.914 15.5921 16.16 15.3872C16.4059 15.1822 16.4095 15.2008 16.5453 15.1149C16.6811 15.0291 16.8754 14.9505 17.0514 14.8757C17.2274 14.8009 17.2568 14.7562 17.3268 14.6261C17.3968 14.4959 17.3971 14.3994 17.3718 14.2696C17.3358 14.0841 17.2117 13.9361 17.0471 13.8735C16.8825 13.8109 16.908 13.8442 16.8311 13.8408L16.8494 13.837Z" fill="#457032"/>
<path d="M10.5236 17.3546L6.7839 18.1245C5.95897 18.2943 5.14717 17.7474 4.9848 16.9123L2.82336 5.79687C2.66099 4.96182 3.20577 4.13559 4.0307 3.96576L11.5284 2.4222C12.3533 2.25237 13.1651 2.79932 13.3275 3.63437L14.6879 10.6303C14.7745 11.0756 15.1913 11.3565 15.6313 11.2659C16.0713 11.1753 16.351 10.7511 16.2644 10.3057L14.904 3.30981C14.5684 1.58404 12.9229 0.475332 11.2181 0.826313L3.72037 2.36987C2.01552 2.72086 0.911255 4.39566 1.24684 6.12143L3.40827 17.2369C3.74385 18.9627 5.38937 20.0714 7.09423 19.7204L10.8339 18.9505C11.2739 18.8599 11.5536 18.4357 11.467 17.9903C11.3804 17.5449 10.9636 17.264 10.5236 17.3546Z" fill="#457032"/>
<path d="M5.19532 7.79905L11.5034 6.50491C11.9422 6.41488 12.2213 5.99316 12.1349 5.55046C12.0485 5.10776 11.6327 4.82856 11.1939 4.91859L4.88582 6.21273C4.447 6.30275 4.16799 6.7245 4.25436 7.1672C4.34073 7.60989 4.75649 7.88908 5.19532 7.79905Z" fill="#457032"/>
<path d="M5.79119 10.8297L10.4727 9.86848C10.9116 9.77836 11.1906 9.35622 11.1043 8.9131C11.0179 8.46999 10.602 8.19054 10.1631 8.28066L5.48164 9.24187C5.04275 9.33198 4.7637 9.75411 4.85008 10.1972C4.93647 10.6403 5.3523 10.9198 5.79119 10.8297Z" fill="#457032"/>
<path d="M6.38555 13.8436L8.34334 13.4409C8.78246 13.3506 9.06167 12.9275 8.97523 12.4834C8.8888 12.0394 8.47274 11.7593 8.03361 11.8496L6.07582 12.2523C5.63669 12.3426 5.35749 12.7656 5.44393 13.2097C5.53036 13.6538 5.94642 13.9339 6.38555 13.8436Z" fill="#457032"/>
</svg>
