<svg width="194" height="38" viewBox="0 0 194 38" fill="none" xmlns="http://www.w3.org/2000/svg">
<path d="M144.592 0L91.3473 0.0923541C89.1106 0.0923541 87.2996 1.90338 87.2996 4.14013V33.9522C87.2996 36.189 89.1106 38 91.3473 38L144.592 37.9077C146.829 37.9077 148.64 36.0966 148.64 33.8599V4.04778C148.64 1.81103 146.829 0 144.592 0Z" fill="url(#paint0_linear_8296_31822)"/>
<path d="M143.14 5.2168H137.297V32.7426H143.14V5.2168Z" fill="#F8FAFD"/>
<path d="M112.406 9.18131C111.579 7.86809 110.458 6.85221 109.041 6.14266L109.052 6.16293C107.633 5.45339 106.045 5.10425 104.299 5.10425H92.7079V32.7404H98.8888V22.6739H104.288C106.034 22.6739 107.622 22.3248 109.041 21.6152C110.46 20.9057 111.582 19.901 112.406 18.5766C113.233 17.2633 113.645 15.6978 113.645 13.8981C113.645 12.0983 113.233 10.5013 112.406 9.17681V9.18131ZM108.394 14.4747C108.257 14.6437 108.097 14.7067 107.897 14.7608C107.622 14.8239 107.324 14.8667 107.061 14.9613C106.838 15.0469 106.606 15.1415 106.394 15.2586C105.971 15.4906 105.568 15.7879 105.23 16.1371C104.932 16.4344 104.689 16.7723 104.489 17.1327C104.383 17.3242 104.297 17.5134 104.225 17.7048C104.13 17.9369 104.076 18.1914 104.013 18.4459C103.982 18.5946 103.97 18.8063 103.887 18.9325C103.738 19.1645 103.452 19.3131 103.178 19.3131C102.849 19.3131 102.457 19.0811 102.394 18.741C102.319 18.3806 102.256 18.0315 102.119 17.6823C101.822 16.921 101.326 16.2317 100.68 15.7249C100.351 15.4613 100.002 15.2496 99.6209 15.0897C99.4294 15.0041 99.2289 14.932 99.0284 14.8779C98.7108 14.7833 98.3617 14.8036 98.0959 14.5806C97.9045 14.4229 97.7896 14.1774 97.7896 13.9341C97.7896 13.6706 97.9067 13.4251 98.1184 13.2674C98.2356 13.1818 98.3617 13.1503 98.4991 13.1187C98.668 13.0669 98.837 13.0241 99.0082 12.9813C99.8551 12.7583 100.616 12.2605 101.2 11.6163C101.486 11.2987 101.718 10.9495 101.909 10.5689C102.078 10.2197 102.184 9.85932 102.279 9.4899C102.322 9.32096 102.342 9.1295 102.428 8.97183C102.576 8.69702 102.862 8.51681 103.169 8.51681C103.455 8.51681 103.729 8.67449 103.878 8.92002C103.964 9.06868 103.984 9.23762 104.027 9.3953C104.079 9.58677 104.121 9.78724 104.175 9.97645C104.239 10.1994 104.356 10.4315 104.462 10.6432C104.694 11.0869 104.991 11.4901 105.34 11.828C105.637 12.1254 105.975 12.3776 106.345 12.5804C106.525 12.675 106.714 12.7718 106.917 12.8439C107.002 12.8754 107.658 13.0444 107.658 13.0556C107.721 13.0669 107.795 13.0872 107.87 13.0984L107.89 13.1412C107.996 13.1615 108.113 13.193 108.196 13.2471C108.439 13.407 108.588 13.6706 108.588 13.9567C108.588 14.1369 108.514 14.3261 108.397 14.4747H108.394Z" fill="#F8FAFD"/>
<path d="M128.007 14.1346V15.6799L127.996 15.6483C127.498 15.1708 126.917 14.7676 126.255 14.4568C125.248 13.9702 124.108 13.7314 122.865 13.7314C121.153 13.7314 119.619 14.1459 118.281 14.9748C116.943 15.8038 115.875 16.9548 115.098 18.4279C114.321 19.9011 113.927 21.5702 113.927 23.4353C113.927 25.3004 114.321 26.9605 115.098 28.4021C115.875 29.8437 116.943 30.9947 118.301 31.8552C119.659 32.7157 121.173 33.1414 122.862 33.1414C124.137 33.1414 125.288 32.9026 126.295 32.4161C126.948 32.1052 127.509 31.711 128.007 31.2538V32.7675H133.794V14.1346H128.007ZM126.577 26.7442C125.748 27.6362 124.658 28.0822 123.29 28.0822L123.279 28.0935C122.407 28.0935 121.642 27.8863 120.957 27.4808C120.272 27.0754 119.722 26.5055 119.319 25.7802C118.914 25.0549 118.707 24.2237 118.707 23.3024C118.707 22.3811 118.914 21.5612 119.319 20.8246C119.725 20.0993 120.274 19.5294 120.957 19.124C121.642 18.7185 122.419 18.5113 123.279 18.5113C124.14 18.5113 124.968 18.7185 125.665 19.124C126.358 19.5294 126.899 20.0881 127.262 20.8044C127.624 21.5207 127.811 22.3383 127.811 23.2619C127.811 24.6832 127.397 25.8432 126.577 26.7465V26.7442Z" fill="#F8FAFD"/>
<path d="M26.3847 4.9895H19.3073L13.3764 15.1484L7.44552 4.9895H0.250977L10.2139 21.2527V32.9027H16.5007V21.0072L26.3847 4.99175V4.9895ZM38.028 14.5582C36.4332 13.6887 34.6469 13.254 32.6715 13.254C30.696 13.254 28.8354 13.6955 27.2542 14.5785C25.6729 15.4615 24.4273 16.653 23.5173 18.1555C22.6072 19.6579 22.1522 21.345 22.1522 23.2169C22.1522 25.0887 22.614 26.8277 23.5353 28.3571C24.4565 29.8866 25.709 31.0984 27.2902 31.9949C28.8715 32.8915 30.6645 33.3397 32.667 33.3397C34.6695 33.3397 36.4625 32.8915 38.0438 31.9949C39.625 31.0984 40.8774 29.8934 41.7987 28.3774C42.72 26.8615 43.1817 25.1428 43.1817 23.2169C43.1817 21.291 42.72 19.6534 41.7987 18.1375C40.8752 16.6215 39.6183 15.4299 38.0235 14.5605L38.028 14.5582ZM36.4467 25.6474C36.0908 26.3456 35.584 26.8795 34.924 27.2489C34.264 27.6183 33.5139 27.803 32.6715 27.803C31.829 27.803 31.0767 27.6183 30.419 27.2489C29.759 26.8795 29.2454 26.3456 28.876 25.6474C28.5066 24.9491 28.3219 24.1517 28.3219 23.2552C28.3219 22.4127 28.5066 21.6469 28.876 20.9621C29.2454 20.2773 29.759 19.7435 30.419 19.3606C31.0767 18.9776 31.829 18.7862 32.6715 18.7862C33.5139 18.7862 34.2595 18.9776 34.906 19.3606C35.5525 19.7435 36.0593 20.2706 36.4287 20.9418C36.7981 21.6131 36.9828 22.3857 36.9828 23.2552C36.9828 24.1247 36.8049 24.9491 36.449 25.6474H36.4467ZM57.6181 13.6887H63.7067V24.7982C63.7067 26.4853 63.3305 27.9675 62.5804 29.2469C61.8281 30.5263 60.7807 31.5264 59.4382 32.2517C58.0934 32.9771 56.5257 33.3397 54.7327 33.3397C52.9397 33.3397 51.4305 32.9703 50.0474 32.2337C48.6644 31.4971 47.5899 30.488 46.8263 29.2086C46.0605 27.9314 45.6798 26.4605 45.6798 24.8004V13.691H51.7683V24.7216C51.7683 25.3816 51.8877 25.9537 52.1242 26.4402C52.3608 26.929 52.7031 27.303 53.1514 27.5665C53.5996 27.83 54.1267 27.9607 54.7327 27.9607C55.6292 27.9607 56.3342 27.6701 56.8478 27.0912C57.3613 26.5123 57.6181 25.7217 57.6181 24.7193V13.6887ZM80.925 13.709C81.6232 13.9861 82.2359 14.4005 82.763 14.9546L79.1657 19.5408C78.9292 19.2772 78.6116 19.0655 78.2174 18.9078C77.821 18.7501 77.3727 18.6713 76.8727 18.6713C75.8455 18.6713 75.0346 18.9821 74.4422 19.5993C73.8498 20.2188 73.5525 21.1491 73.5525 22.3857V32.9027H67.4639V13.6887H73.5525V15.1731C73.5525 15.1731 73.566 15.1596 73.5727 15.1529C74.7711 13.914 76.4132 13.2945 78.4945 13.2945C79.4158 13.2945 80.2267 13.4319 80.925 13.709ZM177.049 15.2768C176.531 14.7835 175.932 14.3735 175.249 14.0446C174.209 13.5446 173.042 13.2945 171.751 13.2945C169.985 13.2945 168.411 13.7225 167.027 14.5785C165.644 15.4344 164.55 16.6215 163.746 18.1375C162.941 19.6534 162.54 21.3743 162.54 23.298C162.54 25.2216 162.941 26.929 163.746 28.4179C164.55 29.9069 165.649 31.0939 167.048 31.9769C168.444 32.8599 170.012 33.3014 171.753 33.3014C173.071 33.3014 174.251 33.0514 175.292 32.5491C175.961 32.227 176.547 31.826 177.051 31.3485V32.905H183.02V13.691H177.051V15.279L177.049 15.2768ZM173.017 27.803C172.199 27.803 171.467 27.6115 170.823 27.2309C170.177 26.8479 169.663 26.3163 169.28 25.6293C168.897 24.9446 168.706 24.1674 168.706 23.2957C168.706 22.424 168.897 21.6491 169.28 20.9621C169.661 20.2773 170.177 19.7435 170.823 19.3606C171.469 18.9776 172.199 18.7862 173.017 18.7862C173.835 18.7862 174.612 18.9776 175.269 19.3606C175.927 19.7435 176.43 20.2706 176.772 20.9418C177.114 21.6131 177.285 22.3857 177.285 23.2552C177.285 24.5999 176.896 25.6947 176.119 26.5371C175.342 27.3818 174.305 27.803 173.015 27.803H173.017Z" fill="#09061E"/>
<path d="M193.749 3.30688H186.915V10.141H193.749V3.30688Z" fill="#09061E"/>
<path d="M158.526 26.8748C159.198 27.5731 159.536 28.4358 159.536 29.4652C159.536 30.4946 159.2 31.3618 158.526 32.0736C157.855 32.7854 156.99 33.1413 155.936 33.1413C154.882 33.1413 154.019 32.7854 153.346 32.0736C152.674 31.3618 152.337 30.4924 152.337 29.4652C152.337 28.4381 152.672 27.5753 153.346 26.8748C154.017 26.1765 154.882 25.8274 155.936 25.8274C156.99 25.8274 157.853 26.1765 158.526 26.8748Z" fill="#09061E"/>
<path d="M193.378 13.6887H187.289V32.9027H193.378V13.6887Z" fill="#09061E"/>
<defs>
<linearGradient id="paint0_linear_8296_31822" x1="88.0587" y1="1.73219" x2="147.877" y2="36.2678" gradientUnits="userSpaceOnUse">
<stop stop-color="#5272EA"/>
<stop offset="1" stop-color="#394FC0"/>
</linearGradient>
</defs>
</svg>
