<svg width="26" height="25" viewBox="0 0 26 25" fill="none" xmlns="http://www.w3.org/2000/svg">
<path d="M23.1811 17.9258L20.1921 16.0577C20.5721 15.2542 20.8289 14.3937 20.993 13.5126C21.1531 12.5221 21.1584 11.5267 21.0139 10.5474L19.0179 10.9227C19.5564 14.6733 17.1751 18.3274 13.4494 19.2752C9.72375 20.2231 5.52194 17.8685 4.57814 13.8897C3.63433 9.91096 6.07664 5.86588 10.03 4.86005C13.9833 3.85423 11.6327 4.58482 12.4164 4.65048L12.9278 2.64285C11.799 2.51036 10.6733 2.57589 9.5556 2.86026C8.4379 3.14463 7.19321 3.72637 6.16847 4.49513C5.20088 5.22725 4.36549 6.14662 3.73523 7.19051C3.10496 8.2344 2.67981 9.40283 2.4814 10.6019C2.27218 11.8479 2.3104 13.1193 2.60688 14.3692C2.90337 15.6191 3.4334 16.7432 4.18123 17.7678C4.89354 18.7352 5.79307 19.5666 6.81865 20.1892C7.84422 20.8118 8.99586 21.2256 10.1809 21.4101C11.4122 21.6048 12.672 21.5494 13.9139 21.2334C15.1558 20.9174 16.2763 20.3673 17.301 19.5985C17.9878 19.0704 18.6134 18.4695 19.1266 17.7646L22.0899 19.6171C22.3256 19.778 22.6144 19.7929 22.8628 19.7297C23.1112 19.6665 23.3349 19.4991 23.4767 19.2642C23.781 18.7892 23.6278 18.1435 23.1456 17.8686L23.1811 17.9258Z" fill="#8343CC"/>
<path d="M10.4419 7.02629C8.62651 7.4219 7.66517 8.54994 7.16595 9.40579C6.07791 11.2949 6.52164 13.2581 6.5414 13.3414C6.66986 13.883 7.2132 14.2306 7.7513 14.0937C8.28939 13.9568 8.62023 13.4088 8.51246 12.862C8.51246 12.862 8.2574 11.6017 8.92005 10.4172C9.3405 9.6918 9.99569 9.21591 10.8699 9.01558L10.9113 9.00505C10.9113 9.00505 10.9113 9.00505 10.932 8.99978C11.4701 8.86288 11.8009 8.31488 11.6931 7.76806C11.5647 7.2265 11.0421 6.87358 10.4783 6.99492L10.4576 7.00019L10.4419 7.02629Z" fill="#8343CC"/>
<path d="M20.7901 3.79437C20.7281 3.81011 20.6817 3.79976 20.6147 3.79465C20.6147 3.79465 20.0837 3.77461 20.0167 3.76949C19.8571 3.74367 19.6974 3.71785 19.5328 3.67118C19.2293 3.59343 18.9109 3.45314 18.6338 3.30236C18.3005 3.09951 18.0036 2.86531 17.7588 2.57368C17.6364 2.42787 17.514 2.28206 17.4281 2.1049C17.3421 1.92774 17.2759 1.83399 17.2205 1.69329C17.1651 1.55259 17.1197 1.45358 17.0328 1.36507C16.8848 1.20365 16.6275 1.13627 16.4207 1.18874C16.1933 1.24645 15.9956 1.42926 15.9467 1.68484C15.8979 1.94042 15.9285 1.97688 15.9375 2.10723C15.9242 2.42011 15.9267 2.7069 15.8464 3.01468C15.771 3.3433 15.6494 3.66157 15.4971 3.94338C15.1819 4.55395 14.6714 5.0814 14.07 5.41084C13.9559 5.48402 13.816 5.5416 13.7019 5.61478C13.5877 5.68795 13.505 5.70894 13.4421 5.81332C13.3064 5.98039 13.2684 6.18903 13.313 6.37668C13.3576 6.56433 13.485 6.73099 13.6595 6.81936C13.9059 6.9337 14.1748 6.8655 14.4171 6.87034C14.5718 6.87531 14.7521 6.89589 14.9118 6.92171C15.231 6.97336 15.5395 7.07197 15.8323 7.19666C16.4229 7.46689 16.9191 7.89369 17.2854 8.41978C17.4533 8.66459 17.5591 8.92515 17.6856 9.18046C17.7865 9.42017 18.1413 9.52912 18.3894 9.46616C18.5962 9.4137 18.7989 9.25173 18.8577 9.03785C18.8949 8.91786 18.8602 8.77192 18.8718 8.63633C18.8686 8.43819 18.8603 8.21918 18.9034 8.0314C18.9464 7.84361 18.958 7.70802 19.006 7.54109C19.0863 7.23331 19.208 6.91505 19.3809 6.62799C19.5646 6.29399 19.8202 5.98593 20.1114 5.73518C20.4026 5.48444 20.4026 5.48445 20.5739 5.37468C20.7451 5.26491 20.9834 5.16025 21.1753 5.04524C21.3672 4.93022 21.4243 4.89363 21.4979 4.7423C21.5716 4.59097 21.5832 4.45537 21.5485 4.30942C21.4939 4.08007 21.3252 3.9239 21.13 3.84078C20.9349 3.75765 20.9704 3.81495 20.8827 3.81509L20.7901 3.79437Z" fill="#8343CC"/>
</svg>
