<svg width="30" height="31" viewBox="0 0 30 31" fill="none" xmlns="http://www.w3.org/2000/svg">
<path d="M18.207 3.14672C20.7422 2.47582 23.3348 3.9623 23.9975 6.46683C24.6603 8.97135 23.1424 11.5456 20.6072 12.2165C18.0719 12.8874 15.4794 11.4009 14.8166 8.89641C14.1538 6.39188 15.6718 3.81762 18.207 3.14672ZM17.9683 2.24477C14.933 3.04801 13.1105 6.1408 13.9036 9.13802C14.6968 12.1352 17.8119 13.9213 20.8458 13.1185C23.8798 12.3156 25.7037 9.22243 24.9105 6.22522C24.1174 3.228 21.0022 1.44189 17.9683 2.24477Z" fill="#0077B5"/>
<path d="M8.90578 18.3926C10.0616 18.0867 10.7536 16.9132 10.4514 15.7713C10.1493 14.6295 8.96735 13.9518 7.81154 14.2577C6.65572 14.5636 5.9637 15.7372 6.26587 16.879C6.56803 18.0208 7.74996 18.6985 8.90578 18.3926Z" fill="#0077B5"/>
<path d="M7.36288 12.5692C9.89809 11.8983 12.4906 13.3848 13.1534 15.8893C13.8162 18.3939 12.2983 20.9681 9.76306 21.639C7.22785 22.3099 4.63529 20.8234 3.97251 18.3189C3.30973 15.8144 4.82768 13.2401 7.36288 12.5692ZM7.12455 11.6686C4.08927 12.4718 2.2667 15.5646 3.05987 18.5618C3.85303 21.5591 6.96815 23.3452 10.0021 22.5423C13.036 21.7394 14.8599 18.6463 14.0668 15.649C13.2736 12.6518 10.1585 10.8657 7.12455 11.6686Z" fill="#0077B5"/>
<path d="M9.76346 21.6413C11.1081 21.2855 12.1664 20.3946 12.7648 19.2626C12.3893 18.5372 11.7765 17.978 11.05 17.6558C10.6735 18.396 9.99244 18.983 9.121 19.2136C8.24957 19.4442 7.36736 19.2709 6.67401 18.8139C6.20196 19.4532 5.94599 20.2423 5.97837 21.0586C7.05841 21.7464 8.41876 21.9972 9.76346 21.6413Z" fill="#0077B5"/>
<path d="M23.0073 21.2979C24.1632 20.992 24.8552 19.8184 24.553 18.6766C24.2508 17.5348 23.0689 16.8571 21.9131 17.163C20.7573 17.4688 20.0653 18.6424 20.3674 19.7843C20.6696 20.9261 21.8515 21.6038 23.0073 21.2979Z" fill="#0077B5"/>
<path d="M21.4648 15.4758C24 14.8049 26.5926 16.2914 27.2553 18.7959C27.9181 21.3005 26.4002 23.8747 23.865 24.5456C21.3298 25.2165 18.7372 23.73 18.0744 21.2255C17.4116 18.721 18.9296 16.1467 21.4648 15.4758ZM21.2261 14.5739C18.1908 15.3771 16.3683 18.4699 17.1614 21.4671C17.9546 24.4643 21.0697 26.2504 24.1037 25.4476C27.1376 24.6447 28.9615 21.5515 28.1683 18.5543C27.3752 15.5571 24.2601 13.771 21.2261 14.5739Z" fill="#0077B5"/>
<path d="M23.865 24.5466C25.2097 24.1907 26.2679 23.2999 26.8664 22.1679C26.4908 21.4425 25.878 20.8833 25.1515 20.5611C24.775 21.3013 24.094 21.8883 23.2226 22.1189C22.3511 22.3495 21.4689 22.1762 20.7756 21.7191C20.3035 22.3585 20.0475 23.1476 20.0799 23.9638C21.16 24.6516 22.5203 24.9024 23.865 24.5466Z" fill="#0077B5"/>
<path d="M13.4407 18.9642L13.2891 19.8867L17.1665 20.4884L17.3182 19.5659L13.4407 18.9642Z" fill="#0077B5"/>
<path d="M14.2338 9.83122L11.3672 12.4131L12.0001 13.1019L14.8668 10.52L14.2338 9.83122Z" fill="#0077B5"/>
</svg>
