<svg width="20" height="19" viewBox="0 0 20 19" fill="none" xmlns="http://www.w3.org/2000/svg">
<path d="M17.6413 5.85958C17.5095 5.87687 17.373 5.87643 17.2593 5.88872C17.2546 5.87102 16.0535 5.89771 15.9124 5.8796C15.5527 5.84568 15.1884 5.79407 14.8148 5.70706C14.1087 5.54074 13.4156 5.27594 12.7813 4.93807C12.0328 4.53671 11.3474 4.0042 10.7753 3.38361C10.5006 3.07966 10.2031 2.763 9.99182 2.40367C9.78055 2.04434 9.66097 1.8116 9.48646 1.51806C9.31195 1.22452 9.23337 0.999438 9.02757 0.809367C8.66627 0.472319 8.12405 0.336799 7.63337 0.471725C7.10634 0.616646 6.69467 1.05244 6.57459 1.55981C6.4989 1.86523 6.55972 2.17102 6.54321 2.47915C6.54229 3.14349 6.53208 3.77245 6.39465 4.43638C6.24835 5.14069 5.98836 5.85731 5.65062 6.50042C4.95272 7.84974 3.85799 9.02355 2.51524 9.77226C2.24305 9.923 1.97086 10.0737 1.69867 10.2245C1.47636 10.3425 1.2904 10.4506 1.1095 10.6521C0.833909 11.0125 0.72271 11.4795 0.834235 11.9042C0.941114 12.3112 1.24325 12.6456 1.6219 12.8261C2.17382 13.0727 2.76425 12.8724 3.32845 12.8691C3.69697 12.8626 4.05662 12.8965 4.41627 12.9304C5.12204 13.021 5.83287 13.205 6.48959 13.4798C7.80305 14.0294 8.9546 14.9271 9.79338 16.0436C10.1602 16.5499 10.4407 17.0988 10.7259 17.6655C10.9837 18.2018 11.7537 18.3885 12.2989 18.2386C12.7714 18.1087 13.197 17.726 13.331 17.2717C13.4206 17.0194 13.3459 16.6605 13.3353 16.3978C13.3329 15.9431 13.3169 15.5111 13.3554 15.0641C13.3989 14.7106 13.4607 14.3521 13.5634 14.0013C13.7507 13.3046 14.02 12.6234 14.3852 12.0107C14.8134 11.2668 15.3557 10.5864 15.985 10.0149C16.2974 9.72033 16.6372 9.45613 17.0045 9.22232C17.417 8.93812 17.8891 8.73239 18.3337 8.49628C18.6604 8.33055 18.9005 8.13174 19.0489 7.80633C19.1837 7.50362 19.2138 7.17278 19.1301 6.85425C19.0047 6.37645 18.6341 6.00404 18.151 5.87123C17.9824 5.82272 17.7867 5.81961 17.5775 5.83919L17.6413 5.85958Z" fill="url(#paint0_linear_8073_3125)"/>
<defs>
<linearGradient id="paint0_linear_8073_3125" x1="15.8446" y1="15.1196" x2="4.37559" y2="3.42309" gradientUnits="userSpaceOnUse">
<stop stop-color="#B588F7"/>
<stop offset="1" stop-color="#1DE5E2"/>
</linearGradient>
</defs>
</svg>
