<svg width="29" height="36" viewBox="0 0 29 36" fill="none" xmlns="http://www.w3.org/2000/svg">
<path d="M27.7395 27.3043C27.6471 27.285 27.5547 27.2678 27.4709 27.2463C27.4709 27.227 26.6329 27.0164 26.5319 26.9777C26.2805 26.881 26.0377 26.7693 25.8013 26.6382C25.335 26.3825 24.9053 26.0624 24.5228 25.6885C24.0759 25.2523 23.6998 24.743 23.4119 24.1887C23.2722 23.9201 23.1261 23.6278 23.0509 23.3356C22.9886 23.0885 22.9263 22.8435 22.8618 22.5964C22.8103 22.3923 22.7866 22.1774 22.677 21.9969C22.488 21.6811 22.1377 21.4834 21.7703 21.4834C21.3792 21.4834 21.0118 21.7069 20.8313 22.055C20.7281 22.2548 20.7045 22.4912 20.6465 22.7082C20.5197 23.1831 20.3972 23.6321 20.1802 24.0748C19.9438 24.5561 19.6409 25.0052 19.282 25.4048C18.545 26.23 17.5695 26.8552 16.4994 27.1324C16.2824 27.1883 16.0654 27.2463 15.8483 27.3022C15.67 27.3495 15.5174 27.3795 15.367 27.4934C15.1027 27.6911 14.9437 28.0091 14.9437 28.34C14.9437 28.6537 15.0877 28.9567 15.3305 29.1587C15.6679 29.438 16.1126 29.4187 16.5123 29.5304C16.768 29.6013 17.0173 29.6894 17.2622 29.7926C17.7414 29.9988 18.1926 30.2696 18.603 30.5941C19.4196 31.243 20.0577 32.1111 20.4316 33.0844C20.6014 33.5249 20.6895 33.9719 20.7797 34.4338C20.8614 34.8636 21.362 35.158 21.7767 35.158C22.127 35.158 22.4901 34.971 22.677 34.6702C22.7802 34.5026 22.7974 34.2426 22.8425 34.0492C22.9177 33.7269 22.9865 33.4111 23.1046 33.1016C23.1992 32.8524 23.3109 32.6117 23.4398 32.3775C23.6934 31.9155 24.0093 31.4879 24.3745 31.1097C24.8064 30.6628 25.3092 30.2868 25.8572 29.9967C26.1322 29.8527 26.418 29.7281 26.7102 29.625C27.0476 29.5046 27.4215 29.4466 27.7717 29.365C28.0274 29.3048 28.2272 29.2189 28.397 29.0083C28.5495 28.8213 28.6333 28.585 28.6333 28.3443C28.6333 27.9769 28.44 27.6438 28.1348 27.4461C28.0231 27.3731 27.8834 27.3366 27.7438 27.3043H27.7395Z" fill="#457032"/>
<path d="M14.0799 31.5994H6.47986C4.79095 31.5994 3.41791 30.2263 3.41791 28.5374V6.25713C3.41791 4.56822 4.79095 3.19518 6.47986 3.19518H21.68C23.3689 3.19518 24.742 4.56822 24.742 6.25713V20.2669C24.742 21.15 25.4575 21.8634 26.3385 21.8634C27.2195 21.8634 27.935 21.1479 27.935 20.2669V6.25713C27.935 2.80196 25.1331 0 21.6779 0H6.47771C3.02254 0 0.220581 2.80196 0.220581 6.25713V28.5374C0.220581 31.9926 3.02254 34.7945 6.47771 34.7945H14.0778C14.9609 34.7945 15.6743 34.079 15.6743 33.198C15.6743 32.317 14.9588 31.6015 14.0778 31.6015L14.0799 31.5994Z" fill="#457032"/>
<path d="M7.30501 11.1286H20.1244C21.0075 11.1286 21.7209 10.413 21.7209 9.53206C21.7209 8.65108 21.0054 7.93555 20.1244 7.93555H7.30501C6.42188 7.93555 5.7085 8.65108 5.7085 9.53206C5.7085 10.413 6.42402 11.1286 7.30501 11.1286Z" fill="#457032"/>
<path d="M7.30501 17.1725H16.8282C17.7114 17.1725 18.4247 16.457 18.4247 15.576C18.4247 14.695 17.7092 13.9795 16.8282 13.9795H7.30501C6.42188 13.9795 5.7085 14.695 5.7085 15.576C5.7085 16.457 6.42402 17.1725 7.30501 17.1725Z" fill="#457032"/>
<path d="M7.30501 23.2145H11.2737C12.1569 23.2145 12.8702 22.499 12.8702 21.618C12.8702 20.737 12.1547 20.0215 11.2737 20.0215H7.30501C6.42188 20.0215 5.7085 20.737 5.7085 21.618C5.7085 22.499 6.42402 23.2145 7.30501 23.2145Z" fill="#457032"/>
</svg>
