<svg width="106" height="63" viewBox="0 0 106 63" fill="none" xmlns="http://www.w3.org/2000/svg">
<path d="M90.2874 47.2656L73.8453 47.2936C73.1534 47.2936 72.5947 47.8522 72.5947 48.5441V57.7493C72.5947 58.4412 73.1534 58.9999 73.8453 58.9999L90.2874 58.972C90.9793 58.972 91.538 58.4133 91.538 57.7214V48.5162C91.538 47.8243 90.9793 47.2656 90.2874 47.2656Z" fill="#457032"/>
<path d="M80.3496 50.1C80.0939 49.6939 79.7479 49.3802 79.3096 49.161L79.3139 49.1674C78.8755 48.9483 78.3856 48.8408 77.8463 48.8408H74.2665V57.3756H76.1746V54.2664H77.842C78.3813 54.2664 78.8712 54.159 79.3096 53.9398C79.7479 53.7206 80.0939 53.4112 80.3496 53.0008C80.6053 52.5947 80.732 52.1112 80.732 51.5568C80.732 51.0025 80.6053 50.5082 80.3496 50.1ZM79.1119 51.7352C79.0689 51.7867 79.0195 51.8061 78.9593 51.8233C78.8734 51.8426 78.7831 51.8555 78.7015 51.8856C78.6327 51.9114 78.5618 51.9415 78.4952 51.978C78.3641 52.0489 78.2395 52.1413 78.1364 52.2487C78.044 52.3411 77.9688 52.4443 77.9086 52.556C77.8764 52.614 77.8506 52.6742 77.8269 52.7322C77.7969 52.8031 77.7818 52.8826 77.7625 52.96C77.7517 53.0051 77.7496 53.0717 77.7238 53.1104C77.6787 53.1813 77.5906 53.2285 77.5046 53.2285C77.4036 53.2285 77.2833 53.1576 77.2618 53.0524C77.2382 52.9406 77.2188 52.8332 77.1759 52.7257C77.0835 52.4894 76.9309 52.2788 76.7311 52.1219C76.6301 52.0403 76.5227 51.9758 76.4045 51.9264C76.3465 51.9006 76.2841 51.877 76.2218 51.8619C76.123 51.8319 76.0156 51.8383 75.9339 51.7696C75.8759 51.7201 75.8394 51.6449 75.8394 51.5697C75.8394 51.4881 75.8759 51.4129 75.9403 51.3634C75.9769 51.3377 76.0156 51.3269 76.0585 51.3183C76.1101 51.3011 76.1638 51.2882 76.2154 51.2753C76.4775 51.2066 76.7117 51.054 76.8922 50.8542C76.9803 50.7553 77.0534 50.6479 77.1114 50.5297C77.163 50.4223 77.1974 50.3106 77.2253 50.1967C77.2382 50.1451 77.2446 50.0849 77.2704 50.0355C77.3155 49.9496 77.4036 49.8959 77.4982 49.8959C77.5863 49.8959 77.6722 49.9453 77.7174 50.0205C77.7431 50.0656 77.7496 50.1193 77.7625 50.1666C77.7797 50.2246 77.7926 50.2869 77.8076 50.3471C77.8269 50.4158 77.8635 50.4868 77.8957 50.5534C77.9666 50.6909 78.059 50.8155 78.1664 50.9187C78.2588 51.011 78.362 51.0884 78.478 51.1507C78.5339 51.1808 78.5919 51.2087 78.6542 51.2324C78.68 51.2431 78.882 51.2947 78.882 51.2968C78.9013 51.3011 78.9249 51.3076 78.9464 51.3097L78.9529 51.3226C78.9851 51.3291 79.0216 51.3398 79.0474 51.3548C79.1226 51.4043 79.1678 51.4859 79.1678 51.574C79.1678 51.6299 79.1441 51.6879 79.1097 51.7352H79.1119Z" fill="#F8FAFD"/>
<path d="M85.167 51.6303V52.1073V52.0987C85.0101 51.9505 84.8318 51.8258 84.6255 51.7313C84.3139 51.5809 83.9637 51.5078 83.5791 51.5078C83.0505 51.5078 82.5777 51.6367 82.163 51.8924C81.7483 52.1481 81.4196 52.5048 81.1811 52.9582C80.9404 53.4137 80.8201 53.9294 80.8201 54.5053C80.8201 55.0812 80.9425 55.5947 81.1811 56.0395C81.4217 56.4843 81.7505 56.841 82.1695 57.1053C82.5885 57.3717 83.0569 57.5028 83.5791 57.5028C83.9723 57.5028 84.329 57.4297 84.6384 57.2793C84.8404 57.1826 85.0123 57.0623 85.167 56.9205V57.3889H86.9526V51.6346H85.167V51.6303ZM84.7243 55.5238C84.4686 55.7988 84.1313 55.9364 83.7101 55.9364H83.708C83.4394 55.9385 83.203 55.8762 82.9903 55.7516C82.7797 55.6269 82.61 55.4507 82.4853 55.2273C82.3607 55.0038 82.2963 54.746 82.2963 54.4623C82.2963 54.1787 82.3607 53.9251 82.4853 53.6974C82.61 53.4739 82.7797 53.2977 82.9903 53.1731C83.2009 53.0485 83.4415 52.984 83.708 52.984C83.9744 52.984 84.2301 53.0485 84.445 53.1731C84.6599 53.2977 84.8253 53.4718 84.937 53.6909C85.0488 53.9123 85.1068 54.1658 85.1068 54.4494C85.1068 54.8878 84.9779 55.2466 84.7265 55.526L84.7243 55.5238Z" fill="#F8FAFD"/>
<path d="M90.1156 49.0322H88.2827V57.3994H90.1156V49.0322Z" fill="#F8FAFD"/>
<path d="M17.3765 57.5281C16.8479 57.5281 16.3902 57.4315 15.9992 57.2381C15.6081 57.0447 15.2772 56.7761 15 56.428L16.2398 55.2354C16.3816 55.4331 16.5492 55.5814 16.7426 55.6845C16.936 55.7877 17.153 55.8392 17.398 55.8392C17.6429 55.8392 17.8385 55.7898 18.0125 55.691C18.1866 55.5921 18.3241 55.4503 18.4251 55.2655C18.5282 55.0807 18.5777 54.8508 18.5777 54.5736V49.0557H20.4449V54.4662C20.4449 55.0893 20.3181 55.6287 20.0667 56.0842C19.8153 56.5419 19.4608 56.8964 19.0031 57.1478C18.5454 57.3992 18.0018 57.526 17.3722 57.526L17.3765 57.5281Z" fill="#333333"/>
<path d="M24.5254 57.5278C23.9345 57.5278 23.4016 57.3967 22.9246 57.1324C22.4475 56.8681 22.0715 56.5093 21.7965 56.0516C21.5214 55.5939 21.3839 55.0825 21.3839 54.5153C21.3839 53.948 21.5214 53.4409 21.7965 52.9918C22.0715 52.5427 22.4454 52.186 22.9181 51.9217C23.3908 51.6574 23.9259 51.5264 24.5254 51.5264C25.1249 51.5264 25.6599 51.6574 26.1326 51.9153C26.6053 52.1753 26.9792 52.532 27.2543 52.9854C27.5293 53.4387 27.6668 53.948 27.6668 54.5153C27.6668 55.0825 27.5293 55.5939 27.2543 56.0516C26.9792 56.5093 26.6053 56.8681 26.1326 57.1324C25.6599 57.3967 25.1249 57.5278 24.5254 57.5278ZM24.5254 55.8862C24.7854 55.8862 25.0131 55.8281 25.2108 55.7143C25.4085 55.6004 25.5589 55.4392 25.6663 55.2308C25.7716 55.0224 25.8254 54.7839 25.8254 54.5153C25.8254 54.2467 25.7695 54.0125 25.6599 53.8126C25.5503 53.6128 25.3978 53.4538 25.2044 53.3399C25.011 53.226 24.7854 53.168 24.5254 53.168C24.2654 53.168 24.0483 53.226 23.8528 53.3399C23.6551 53.4538 23.5026 53.6128 23.393 53.8191C23.2834 54.0232 23.2275 54.2596 23.2275 54.5282C23.2275 54.7967 23.2834 55.0224 23.393 55.2308C23.5026 55.4392 23.6573 55.6004 23.8528 55.7143C24.0505 55.8281 24.274 55.8862 24.5254 55.8862Z" fill="#333333"/>
<path d="M28.565 57.3991V48.8213H30.3721V53.0629L30.0756 54.4574L30.3485 55.852V57.3991H28.565ZM31.8719 57.5172C31.4851 57.5172 31.1306 57.4356 30.8083 57.2744C30.486 57.1133 30.2217 56.8963 30.0176 56.6255C29.8134 56.3548 29.6952 56.0496 29.663 55.7101V53.2885C29.6952 52.949 29.8134 52.6482 30.0176 52.3839C30.2217 52.1196 30.486 51.9133 30.8083 51.7629C31.1306 51.6125 31.4851 51.5394 31.8719 51.5394C32.4155 51.5394 32.8969 51.6705 33.3202 51.9284C33.7413 52.1884 34.0722 52.5429 34.3129 52.992C34.5535 53.4411 34.6739 53.9525 34.6739 54.5283C34.6739 55.1042 34.5535 55.6156 34.3129 56.0647C34.0722 56.5138 33.7413 56.8683 33.3202 57.1283C32.899 57.3883 32.4155 57.5172 31.8719 57.5172ZM31.5539 55.8863C31.8053 55.8863 32.0288 55.8283 32.2222 55.7101C32.4155 55.592 32.566 55.4308 32.6777 55.2267C32.7873 55.0225 32.8431 54.7905 32.8431 54.5305C32.8431 54.2705 32.7873 54.0255 32.6777 53.8214C32.5681 53.6173 32.4155 53.4583 32.2222 53.3422C32.0288 53.2284 31.8075 53.1703 31.5539 53.1703C31.3003 53.1703 31.0769 53.2284 30.8813 53.3422C30.6837 53.4561 30.5332 53.6151 30.4258 53.8214C30.3205 54.0255 30.2668 54.2619 30.2668 54.5305C30.2668 54.7991 30.3227 55.0354 30.4323 55.2396C30.5418 55.4437 30.6944 55.6049 30.8878 55.7187C31.0812 55.8326 31.3025 55.8906 31.5561 55.8906L31.5539 55.8863Z" fill="#333333"/>
<path d="M37.6843 57.5387C37.3448 57.5387 37.0117 57.4958 36.6851 57.4098C36.3585 57.3239 36.0555 57.1992 35.7762 57.0381C35.4969 56.8769 35.2584 56.69 35.0607 56.4773L36.0878 55.4373C36.2769 55.6414 36.5003 55.8026 36.7603 55.9164C37.0203 56.0303 37.304 56.0883 37.6112 56.0883C37.8239 56.0883 37.9873 56.0561 38.1011 55.9938C38.215 55.9315 38.273 55.8434 38.273 55.7338C38.273 55.592 38.2043 55.4845 38.0668 55.4093C37.9292 55.3341 37.753 55.2675 37.5403 55.2095C37.3276 55.1515 37.1041 55.0849 36.8678 55.014C36.6314 54.9431 36.4079 54.8442 36.1952 54.7196C35.9825 54.5928 35.8084 54.4188 35.6752 54.1932C35.542 53.9697 35.4754 53.6839 35.4754 53.3358C35.4754 52.9662 35.5699 52.6439 35.759 52.3732C35.9481 52.1024 36.2167 51.8876 36.5626 51.7286C36.9086 51.5717 37.3147 51.4922 37.7788 51.4922C38.2666 51.4922 38.7178 51.576 39.1325 51.7457C39.5451 51.9155 39.8824 52.1647 40.1424 52.4957L39.1153 53.5356C38.9348 53.3229 38.7307 53.1725 38.5072 53.0866C38.2838 53.0006 38.0646 52.9555 37.8519 52.9555C37.6392 52.9555 37.493 52.9856 37.392 53.0436C37.2889 53.1016 37.2373 53.1875 37.2373 53.2971C37.2373 53.4153 37.304 53.5099 37.4372 53.5808C37.5704 53.6517 37.7444 53.714 37.9572 53.7699C38.1699 53.8257 38.3934 53.8923 38.6297 53.9697C38.8661 54.0492 39.0896 54.1545 39.3023 54.2877C39.515 54.4209 39.6891 54.6014 39.8223 54.8249C39.9555 55.0484 40.0221 55.3427 40.0221 55.7059C40.0221 56.2645 39.8115 56.7093 39.3904 57.0402C38.9692 57.3711 38.3998 57.5366 37.6821 57.5366L37.6843 57.5387Z" fill="#333333"/>
<path d="M43.8404 57.5278C43.2173 57.5278 42.6651 57.3989 42.1816 57.1432C41.6981 56.8875 41.3178 56.5308 41.0406 56.0731C40.7656 55.6154 40.6281 55.0997 40.6281 54.526C40.6281 53.9523 40.7634 53.4366 41.0363 52.9854C41.3071 52.532 41.6766 52.1753 42.1408 51.9153C42.6049 51.6553 43.1292 51.5264 43.7115 51.5264C44.2938 51.5264 44.7794 51.6488 45.2113 51.8917C45.6454 52.1366 45.9849 52.474 46.2341 52.908C46.4812 53.3421 46.6058 53.8384 46.6058 54.3971C46.6058 54.5002 46.5994 54.6077 46.5887 54.7215C46.5758 54.8354 46.5543 54.9686 46.5242 55.1169L41.5735 55.1298V53.89L45.7549 53.8771L44.9749 54.3971C44.9664 54.0662 44.9148 53.7933 44.8202 53.5763C44.7257 53.3592 44.586 53.1938 44.4012 53.0799C44.2164 52.966 43.9887 52.908 43.7222 52.908C43.4386 52.908 43.1915 52.9725 42.9831 53.1035C42.7746 53.2346 42.6135 53.4173 42.4996 53.6536C42.3857 53.89 42.3277 54.1779 42.3277 54.5153C42.3277 54.8526 42.3879 55.1427 42.5103 55.3834C42.6328 55.624 42.8047 55.8088 43.0303 55.9377C43.2538 56.0667 43.5203 56.1333 43.8275 56.1333C44.1112 56.1333 44.3669 56.0838 44.5946 55.985C44.8224 55.8862 45.0244 55.7379 45.1963 55.5424L46.189 56.5351C45.9053 56.866 45.5637 57.1131 45.1619 57.2785C44.7601 57.444 44.3196 57.5278 43.8383 57.5278H43.8404Z" fill="#333333"/>
<path d="M50.3145 57.5278C49.6914 57.5278 49.1392 57.3989 48.6557 57.1432C48.1722 56.8875 47.7919 56.5308 47.5147 56.0731C47.2397 55.6154 47.1022 55.0997 47.1022 54.526C47.1022 53.9523 47.2375 53.4366 47.5104 52.9854C47.7812 52.532 48.1508 52.1753 48.6149 51.9153C49.079 51.6553 49.6033 51.5264 50.1856 51.5264C50.7679 51.5264 51.2535 51.6488 51.6854 51.8917C52.1195 52.1366 52.459 52.474 52.7082 52.908C52.9553 53.3421 53.08 53.8384 53.08 54.3971C53.08 54.5002 53.0735 54.6077 53.0628 54.7215C53.0499 54.8354 53.0284 54.9686 52.9983 55.1169L48.0476 55.1298V53.89L52.2291 53.8771L51.4491 54.3971C51.4405 54.0662 51.3889 53.7933 51.2944 53.5763C51.1998 53.3592 51.0601 53.1938 50.8754 53.0799C50.6906 52.966 50.4628 52.908 50.1964 52.908C49.9127 52.908 49.6656 52.9725 49.4572 53.1035C49.2488 53.2346 49.0876 53.4173 48.9737 53.6536C48.8598 53.89 48.8018 54.1779 48.8018 54.5153C48.8018 54.8526 48.862 55.1427 48.9845 55.3834C49.1069 55.624 49.2789 55.8088 49.5045 55.9377C49.7279 56.0667 49.9944 56.1333 50.3016 56.1333C50.5853 56.1333 50.841 56.0838 51.0687 55.985C51.2965 55.8862 51.4985 55.7379 51.6704 55.5424L52.6631 56.5351C52.3795 56.866 52.0378 57.1131 51.636 57.2785C51.2342 57.444 50.7937 57.5278 50.3124 57.5278H50.3145Z" fill="#333333"/>
<path d="M53.9524 57.3991V48.8213H55.7595V57.3991H53.9524ZM57.6267 57.3991L55.6177 54.4209L57.6138 51.6555H59.6337L57.2228 54.7626L57.2829 54.0191L59.7518 57.3969H57.6246L57.6267 57.3991Z" fill="#333333"/>
<path d="M62.9899 57.5278C62.3668 57.5278 61.8146 57.3989 61.3311 57.1432C60.8477 56.8875 60.4673 56.5308 60.1901 56.0731C59.9151 55.6154 59.7776 55.0997 59.7776 54.526C59.7776 53.9523 59.913 53.4366 60.1858 52.9854C60.4566 52.532 60.8262 52.1753 61.2903 51.9153C61.7544 51.6553 62.2787 51.5264 62.861 51.5264C63.4433 51.5264 63.9289 51.6488 64.3608 51.8917C64.7949 52.1366 65.1344 52.474 65.3836 52.908C65.6308 53.3421 65.7554 53.8384 65.7554 54.3971C65.7554 54.5002 65.7489 54.6077 65.7382 54.7215C65.7253 54.8354 65.7038 54.9686 65.6737 55.1169L60.723 55.1298V53.89L64.9045 53.8771L64.1245 54.3971C64.1159 54.0662 64.0643 53.7933 63.9698 53.5763C63.8752 53.3592 63.7356 53.1938 63.5508 53.0799C63.366 52.966 63.1382 52.908 62.8718 52.908C62.5881 52.908 62.341 52.9725 62.1326 53.1035C61.9242 53.2346 61.763 53.4173 61.6491 53.6536C61.5353 53.89 61.4772 54.1779 61.4772 54.5153C61.4772 54.8526 61.5374 55.1427 61.6599 55.3834C61.7824 55.624 61.9543 55.8088 62.1799 55.9377C62.4033 56.0667 62.6698 56.1333 62.9771 56.1333C63.2607 56.1333 63.5164 56.0838 63.7442 55.985C63.9719 55.8862 64.1739 55.7379 64.3458 55.5424L65.3385 56.5351C65.0549 56.866 64.7132 57.1131 64.3114 57.2785C63.9096 57.444 63.4691 57.5278 62.9878 57.5278H62.9899Z" fill="#333333"/>
<path d="M66.6299 57.3987V51.6572H68.437V57.3987H66.6299ZM68.437 54.2443L67.6806 53.6534C67.831 52.9852 68.0824 52.4652 68.437 52.0934C68.7915 51.7239 69.2836 51.5391 69.9132 51.5391C70.1882 51.5391 70.431 51.5799 70.6394 51.6637C70.8479 51.7453 71.0305 51.8743 71.1895 52.0483L70.1151 53.4063C70.0356 53.3204 69.9389 53.2538 69.8208 53.2065C69.7026 53.1592 69.5694 53.1356 69.4189 53.1356C69.1203 53.1356 68.8818 53.228 68.7034 53.4128C68.5251 53.5976 68.437 53.8747 68.437 54.2465V54.2443Z" fill="#333333"/>
<path d="M66.7395 32.3043C66.6471 32.285 66.5547 32.2678 66.4709 32.2463C66.4709 32.227 65.6329 32.0164 65.5319 31.9777C65.2805 31.881 65.0377 31.7693 64.8013 31.6382C64.335 31.3825 63.9053 31.0624 63.5228 30.6885C63.0759 30.2523 62.6998 29.743 62.4119 29.1887C62.2722 28.9201 62.1261 28.6278 62.0509 28.3356C61.9886 28.0885 61.9263 27.8435 61.8618 27.5964C61.8103 27.3923 61.7866 27.1774 61.677 26.9969C61.488 26.6811 61.1377 26.4834 60.7703 26.4834C60.3792 26.4834 60.0118 26.7069 59.8313 27.055C59.7281 27.2548 59.7045 27.4912 59.6465 27.7082C59.5197 28.1831 59.3972 28.6321 59.1802 29.0748C58.9438 29.5561 58.6409 30.0052 58.282 30.4048C57.545 31.23 56.5695 31.8552 55.4994 32.1324C55.2824 32.1883 55.0654 32.2463 54.8483 32.3022C54.67 32.3495 54.5174 32.3795 54.367 32.4934C54.1027 32.6911 53.9437 33.0091 53.9437 33.34C53.9437 33.6537 54.0877 33.9567 54.3305 34.1587C54.6679 34.438 55.1126 34.4187 55.5123 34.5304C55.768 34.6013 56.0173 34.6894 56.2622 34.7926C56.7414 34.9988 57.1926 35.2696 57.603 35.5941C58.4196 36.243 59.0577 37.1111 59.4316 38.0844C59.6014 38.5249 59.6895 38.9719 59.7797 39.4338C59.8614 39.8636 60.362 40.158 60.7767 40.158C61.127 40.158 61.4901 39.971 61.677 39.6702C61.7802 39.5026 61.7974 39.2426 61.8425 39.0492C61.9177 38.7269 61.9865 38.4111 62.1046 38.1016C62.1992 37.8524 62.3109 37.6117 62.4398 37.3775C62.6934 36.9155 63.0093 36.4879 63.3745 36.1097C63.8064 35.6628 64.3092 35.2868 64.8572 34.9967C65.1322 34.8527 65.418 34.7281 65.7102 34.625C66.0476 34.5046 66.4215 34.4466 66.7717 34.365C67.0274 34.3048 67.2272 34.2189 67.397 34.0083C67.5495 33.8213 67.6333 33.585 67.6333 33.3443C67.6333 32.9769 67.44 32.6438 67.1348 32.4461C67.0231 32.3731 66.8834 32.3366 66.7438 32.3043H66.7395Z" fill="#457032"/>
<path d="M53.0799 36.5994H45.4799C43.7909 36.5994 42.4179 35.2263 42.4179 33.5374V11.2571C42.4179 9.56822 43.7909 8.19518 45.4799 8.19518H60.68C62.3689 8.19518 63.742 9.56822 63.742 11.2571V25.2669C63.742 26.15 64.4575 26.8634 65.3385 26.8634C66.2195 26.8634 66.935 26.1479 66.935 25.2669V11.2571C66.935 7.80196 64.1331 5 60.6779 5H45.4777C42.0225 5 39.2206 7.80196 39.2206 11.2571V33.5374C39.2206 36.9926 42.0225 39.7945 45.4777 39.7945H53.0778C53.9609 39.7945 54.6743 39.079 54.6743 38.198C54.6743 37.317 53.9588 36.6015 53.0778 36.6015L53.0799 36.5994Z" fill="#457032"/>
<path d="M46.305 16.1286H59.1244C60.0075 16.1286 60.7209 15.413 60.7209 14.5321C60.7209 13.6511 60.0054 12.9355 59.1244 12.9355H46.305C45.4219 12.9355 44.7085 13.6511 44.7085 14.5321C44.7085 15.413 45.424 16.1286 46.305 16.1286Z" fill="#457032"/>
<path d="M46.305 22.1725H55.8282C56.7114 22.1725 57.4247 21.457 57.4247 20.576C57.4247 19.695 56.7092 18.9795 55.8282 18.9795H46.305C45.4219 18.9795 44.7085 19.695 44.7085 20.576C44.7085 21.457 45.424 22.1725 46.305 22.1725Z" fill="#457032"/>
<path d="M46.305 28.2145H50.2737C51.1569 28.2145 51.8702 27.499 51.8702 26.618C51.8702 25.737 51.1547 25.0215 50.2737 25.0215H46.305C45.4219 25.0215 44.7085 25.737 44.7085 26.618C44.7085 27.499 45.424 28.2145 46.305 28.2145Z" fill="#457032"/>
</svg>
