<svg width="106" height="63" viewBox="0 0 106 63" fill="none" xmlns="http://www.w3.org/2000/svg">
<path d="M85.731 47.8389L70.0917 47.8666C69.4343 47.8666 68.9028 48.3981 68.9028 49.0555V57.8111C68.9028 58.4685 69.4343 59 70.0917 59L85.731 58.9723C86.3884 58.9723 86.9199 58.4408 86.9199 57.7834V49.0278C86.9199 48.3703 86.3884 47.8389 85.731 47.8389Z" fill="#8343CC"/>
<path d="M85.304 49.3711H83.5879V57.4565H85.304V49.3711Z" fill="white"/>
<path d="M76.2773 50.5363C76.0339 50.15 75.7052 49.8533 75.289 49.6441V49.6505C74.8749 49.4413 74.4096 49.3389 73.8952 49.3389H70.4907V57.4563H72.3072V54.5H73.8931C74.4053 54.5 74.8728 54.3976 75.289 54.1884C75.7052 53.9792 76.0361 53.6846 76.2773 53.2962C76.5206 52.9098 76.6401 52.4509 76.6401 51.9216C76.6401 51.3922 76.5185 50.9226 76.2773 50.5342V50.5363ZM75.099 52.0902C75.0585 52.1393 75.0115 52.1585 74.9539 52.1734C74.8728 52.1927 74.7853 52.2055 74.7084 52.2332C74.6423 52.2588 74.574 52.2866 74.5121 52.3207C74.3883 52.389 74.2687 52.4765 74.1705 52.579C74.083 52.6665 74.0126 52.7647 73.9528 52.8714C73.9208 52.9269 73.8973 52.9824 73.876 53.04C73.8482 53.1083 73.8333 53.183 73.8141 53.2578C73.8055 53.3004 73.8013 53.3645 73.7778 53.4008C73.7351 53.4691 73.6497 53.5118 73.5686 53.5118C73.4726 53.5118 73.3573 53.4434 73.3381 53.3431C73.3168 53.2364 73.2975 53.134 73.257 53.0315C73.1695 52.8074 73.0243 52.6046 72.8344 52.4573C72.7383 52.3805 72.6359 52.3165 72.5227 52.2716C72.4672 52.246 72.4075 52.2247 72.3477 52.2097C72.2538 52.182 72.1514 52.1884 72.0745 52.1222C72.019 52.0753 71.9849 52.0048 71.9849 51.9322C71.9849 51.8554 72.019 51.7828 72.0809 51.7359C72.115 51.7103 72.1513 51.7017 72.1919 51.6932C72.241 51.6782 72.2922 51.6654 72.3413 51.6526C72.5911 51.5865 72.813 51.4413 72.9859 51.2514C73.0692 51.1574 73.1375 51.055 73.1951 50.944C73.2442 50.8415 73.2762 50.7348 73.304 50.626C73.3168 50.5769 73.3232 50.5192 73.3466 50.4744C73.3893 50.3933 73.4747 50.3399 73.5644 50.3399C73.6476 50.3399 73.7287 50.3869 73.7735 50.4573C73.7992 50.5 73.8055 50.5512 73.8162 50.5982C73.8312 50.6537 73.844 50.7135 73.8589 50.769C73.8781 50.8351 73.9123 50.9034 73.9422 50.9653C74.0105 51.0955 74.098 51.2151 74.2004 51.3133C74.2879 51.4008 74.3861 51.4755 74.495 51.5331C74.5484 51.5609 74.6039 51.5886 74.6636 51.6099C74.6892 51.6185 74.8813 51.6697 74.8813 51.6718C74.9005 51.674 74.9219 51.6804 74.9432 51.6846L74.9496 51.6975C74.9817 51.7039 75.0158 51.7124 75.0393 51.7295C75.1118 51.7764 75.1545 51.8533 75.1545 51.9387C75.1545 51.992 75.1332 52.0475 75.099 52.0902Z" fill="white"/>
<path d="M80.86 51.9895V52.4441V52.4356C80.7106 52.2947 80.5398 52.1773 80.3456 52.0855C80.051 51.9425 79.7159 51.8721 79.3488 51.8721C78.8472 51.8721 78.3947 51.9937 78.0019 52.2371C77.6092 52.4804 77.2954 52.8198 77.067 53.2509C76.8386 53.6842 76.7234 54.173 76.7234 54.7216C76.7234 55.2701 76.8386 55.7568 77.067 56.1794C77.2954 56.6021 77.6092 56.9414 78.0083 57.1933C78.4075 57.4452 78.8515 57.5711 79.3488 57.5711C79.7245 57.5711 80.0617 57.5007 80.3563 57.3577C80.5484 57.2659 80.7127 57.1506 80.8579 57.0161V57.4601H82.5569V51.9873H80.8579L80.86 51.9895ZM80.4395 55.6949C80.1962 55.9574 79.876 56.0876 79.4747 56.0876H79.4726C79.2165 56.0898 78.9923 56.03 78.7896 55.9105C78.5889 55.791 78.4267 55.6245 78.3093 55.411C78.1898 55.1976 78.13 54.9542 78.13 54.6832C78.13 54.4121 78.1919 54.1709 78.3093 53.9553C78.4288 53.7419 78.5889 53.5754 78.7896 53.4558C78.9902 53.3363 79.2186 53.2765 79.4726 53.2765C79.7266 53.2765 79.9699 53.3384 80.1727 53.4558C80.3776 53.5754 80.5355 53.7397 80.6423 53.9489C80.749 54.1581 80.8045 54.3993 80.8045 54.6704C80.8045 55.0866 80.6828 55.4281 80.4416 55.6928L80.4395 55.6949Z" fill="white"/>
<path d="M17.8398 57.4557V49.127H19.6926V57.4557H17.8398ZM19.255 54.0234V52.6552H21.0138C21.3831 52.6552 21.6691 52.5613 21.8697 52.3713C22.0704 52.1835 22.1707 51.9274 22.1707 51.6051C22.1707 51.3062 22.0725 51.0586 21.8761 50.8623C21.6798 50.6659 21.3959 50.5677 21.0266 50.5677H19.2571V49.1291H21.2401C21.7908 49.1291 22.2753 49.2337 22.6915 49.4407C23.1077 49.6499 23.4343 49.9381 23.6712 50.3073C23.9082 50.6766 24.0255 51.1013 24.0255 51.5816C24.0255 52.0618 23.9082 52.4951 23.6712 52.8623C23.4364 53.2273 23.1056 53.5133 22.6808 53.7182C22.2561 53.9231 21.7566 54.0256 21.1824 54.0256H19.2593L19.255 54.0234ZM22.3692 57.4557L19.7737 53.8697L21.4727 53.4087L24.5634 57.4557H22.3692Z" fill="#333333"/>
<path d="M27.8911 57.5852C27.27 57.5852 26.7171 57.4571 26.2326 57.201C25.7481 56.9449 25.3703 56.5884 25.0949 56.1338C24.8196 55.677 24.683 55.1626 24.683 54.5884C24.683 54.0142 24.8175 53.502 25.0907 53.0495C25.3618 52.597 25.7289 52.2405 26.1942 51.9822C26.6595 51.7218 27.1803 51.5938 27.763 51.5938C28.3457 51.5938 28.8281 51.7154 29.2614 51.9587C29.6947 52.2021 30.0341 52.5415 30.2817 52.9726C30.5293 53.4059 30.6531 53.9011 30.6531 54.4582C30.6531 54.5607 30.6467 54.6695 30.636 54.7826C30.6232 54.8958 30.6019 55.0281 30.572 55.1775L25.6285 55.1903V53.9523L29.8057 53.9395L29.0266 54.4582C29.0181 54.1274 28.9669 53.8542 28.873 53.6386C28.779 53.423 28.6381 53.2565 28.4546 53.1434C28.2689 53.0302 28.0426 52.9726 27.7758 52.9726C27.4919 52.9726 27.2465 53.0367 27.0394 53.1669C26.8303 53.2971 26.6702 53.4785 26.5549 53.7154C26.4397 53.9523 26.3842 54.2384 26.3842 54.5777C26.3842 54.9171 26.4439 55.2053 26.5677 55.4443C26.6894 55.6834 26.8623 55.8691 27.0864 55.9993C27.3105 56.1295 27.5752 56.1935 27.8826 56.1935C28.1664 56.1935 28.4204 56.1444 28.6488 56.0463C28.8772 55.9481 29.0779 55.8008 29.2508 55.6044L30.2412 56.5948C29.9573 56.9257 29.6157 57.1733 29.2145 57.3376C28.8132 57.502 28.3735 57.5852 27.8932 57.5852H27.8911Z" fill="#333333"/>
<path d="M34.2988 57.5852C33.7097 57.5852 33.1739 57.455 32.6937 57.1967C32.2134 56.9363 31.8356 56.5799 31.5603 56.1231C31.2849 55.6663 31.1483 55.1562 31.1483 54.5884C31.1483 54.0206 31.287 53.502 31.5667 53.0495C31.8463 52.597 32.2262 52.2405 32.7043 51.9822C33.1846 51.7218 33.7225 51.5938 34.3201 51.5938C34.7684 51.5938 35.1803 51.6706 35.5538 51.8243C35.9274 51.978 36.2604 52.2085 36.5506 52.5137L35.3938 53.6706C35.2593 53.5212 35.1056 53.4102 34.9285 53.3397C34.7513 53.2693 34.5485 53.233 34.3201 53.233C34.0597 53.233 33.8313 53.2906 33.6307 53.4038C33.43 53.5169 33.2721 53.6749 33.159 53.8755C33.0437 54.0761 32.9882 54.3109 32.9882 54.5777C32.9882 54.8445 33.0458 55.0815 33.159 55.2864C33.2721 55.4913 33.4322 55.6514 33.6371 55.7709C33.842 55.8904 34.0704 55.9481 34.3223 55.9481C34.5571 55.9481 34.7684 55.9075 34.9541 55.8243C35.1398 55.741 35.2977 55.6258 35.4322 55.4764L36.5763 56.6332C36.2774 56.947 35.9402 57.1861 35.5624 57.3461C35.1846 57.5062 34.7641 57.5873 34.3009 57.5873L34.2988 57.5852Z" fill="#333333"/>
<path d="M37.3767 57.4553V51.7221H39.1825V57.4553H37.3767ZM39.1825 54.3048L38.4269 53.7157C38.5763 53.0476 38.8281 52.5289 39.1825 52.1575C39.5368 51.7882 40.0277 51.6025 40.6574 51.6025C40.9327 51.6025 41.1739 51.6431 41.3831 51.7263C41.5923 51.8096 41.7737 51.9376 41.9317 52.1105L40.858 53.4681C40.7791 53.3806 40.6809 53.3144 40.5635 53.2674C40.4461 53.2205 40.3116 53.197 40.1622 53.197C39.8634 53.197 39.6243 53.2888 39.4493 53.4745C39.2721 53.6602 39.1846 53.9376 39.1846 54.3069L39.1825 54.3048Z" fill="#333333"/>
<path d="M44.9519 57.5851C44.4247 57.5851 43.9594 57.4762 43.5538 57.2606C43.1483 57.045 42.8323 56.7462 42.604 56.3642C42.3756 55.9821 42.2625 55.5445 42.2625 55.0493V51.7217H44.0682V55.0258C44.0682 55.2222 44.1024 55.3908 44.1685 55.5338C44.2347 55.6747 44.335 55.7857 44.4695 55.8647C44.604 55.9437 44.764 55.9821 44.954 55.9821C45.2208 55.9821 45.4343 55.8967 45.5901 55.7281C45.748 55.5595 45.827 55.3247 45.827 55.0258V51.7217H47.6328V55.0365C47.6328 55.5402 47.5175 55.9821 47.2912 56.3642C47.0629 56.7462 46.7491 57.045 46.3478 57.2606C45.9466 57.4762 45.4834 57.5851 44.9562 57.5851H44.9519Z" fill="#333333"/>
<path d="M49.6712 50.9302C49.3874 50.9302 49.1547 50.8341 48.969 50.642C48.7833 50.4499 48.6915 50.2151 48.6915 49.9398C48.6915 49.6644 48.7833 49.4211 48.969 49.2311C49.1547 49.0433 49.3874 48.9473 49.6712 48.9473C49.9551 48.9473 50.1857 49.0412 50.3671 49.2311C50.5485 49.419 50.6382 49.6559 50.6382 49.9398C50.6382 50.2237 50.5485 50.4499 50.3671 50.642C50.1857 50.8341 49.9551 50.9302 49.6712 50.9302ZM48.762 57.4553V51.7221H50.5677V57.4553H48.762Z" fill="#333333"/>
<path d="M51.3574 53.2545V51.7198H55.7587V53.2545H51.3574ZM52.6552 57.4552V49.3506H54.461V57.4552H52.6552Z" fill="#333333"/>
<path d="M59.2635 57.5852C58.6424 57.5852 58.0896 57.4571 57.605 57.201C57.1205 56.9449 56.7427 56.5884 56.4674 56.1338C56.192 55.677 56.0554 55.1626 56.0554 54.5884C56.0554 54.0142 56.1899 53.502 56.4631 53.0495C56.7342 52.597 57.1013 52.2405 57.5666 51.9822C58.0319 51.7218 58.5528 51.5938 59.1355 51.5938C59.7182 51.5938 60.2006 51.7154 60.6338 51.9587C61.0671 52.2021 61.4065 52.5415 61.6541 52.9726C61.9017 53.4059 62.0255 53.9011 62.0255 54.4582C62.0255 54.5607 62.0191 54.6695 62.0085 54.7826C61.9957 54.8958 61.9743 55.0281 61.9444 55.1775L57.001 55.1903V53.9523L61.1781 53.9395L60.3991 54.4582C60.3905 54.1274 60.3393 53.8542 60.2454 53.6386C60.1515 53.423 60.0106 53.2565 59.827 53.1434C59.6413 53.0302 59.4151 52.9726 59.1483 52.9726C58.8644 52.9726 58.6189 53.0367 58.4119 53.1669C58.2027 53.2971 58.0426 53.4785 57.9274 53.7154C57.8121 53.9523 57.7566 54.2384 57.7566 54.5777C57.7566 54.9171 57.8163 55.2053 57.9401 55.4443C58.0618 55.6834 58.2347 55.8691 58.4588 55.9993C58.683 56.1295 58.9476 56.1935 59.255 56.1935C59.5389 56.1935 59.7929 56.1444 60.0213 56.0463C60.2496 55.9481 60.4503 55.8008 60.6232 55.6044L61.6136 56.5948C61.3297 56.9257 60.9882 57.1733 60.5869 57.3376C60.1856 57.502 59.7459 57.5852 59.2657 57.5852H59.2635Z" fill="#333333"/>
<path d="M62.8964 57.4553V51.7221H64.7021V57.4553H62.8964ZM64.7021 54.3048L63.9465 53.7157C64.0959 53.0476 64.3478 52.5289 64.7021 52.1575C65.0564 51.7882 65.5474 51.6025 66.177 51.6025C66.4524 51.6025 66.6936 51.6431 66.9027 51.7263C67.1119 51.8096 67.2934 51.9376 67.4513 52.1105L66.3777 53.4681C66.2987 53.3806 66.2005 53.3144 66.0831 53.2674C65.9657 53.2205 65.8312 53.197 65.6818 53.197C65.383 53.197 65.144 53.2888 64.9689 53.4745C64.7918 53.6602 64.7043 53.9376 64.7043 54.3069L64.7021 54.3048Z" fill="#333333"/>
<path d="M67.6733 37.0619L63.2293 32.5091C64.2261 31.2796 65.0436 29.9221 65.6647 28.4557C66.3605 26.8079 66.7853 25.0811 66.9326 23.3052L63.2912 23.0832C62.685 29.8303 57.0158 35.1195 50.1108 35.1195C42.8003 35.1195 36.875 29.1942 36.875 21.8837C36.875 14.5731 42.8003 8.64781 50.1108 8.64781C51.5986 8.64781 53.0308 8.89327 54.3648 9.34578L56.0959 6.09498C54.1855 5.36926 52.1749 5 50.1087 5C47.8312 5 45.6199 5.4461 43.5366 6.32764C41.526 7.17716 39.7202 8.39594 38.1706 9.94343C36.621 11.4931 35.4043 13.2988 34.5548 15.3095C33.6733 17.3927 33.2272 19.604 33.2272 21.8815C33.2272 24.159 33.6733 26.3703 34.5548 28.4536C35.4043 30.4642 36.6231 32.27 38.1706 33.8196C39.7202 35.3692 41.526 36.5859 43.5366 37.4354C45.6199 38.3169 47.8312 38.763 50.1087 38.763C52.3862 38.763 54.5975 38.3169 56.6807 37.4354C58.1108 36.8314 59.4363 36.0395 60.6402 35.0768L65.0628 39.6062C65.4192 39.9712 65.8931 40.1547 66.367 40.1547C66.8408 40.1547 67.2869 39.9818 67.6412 39.636C68.3627 38.9317 68.3755 37.7791 67.6711 37.0576L67.6733 37.0619Z" fill="#8343CC"/>
<path d="M49.9337 12.5905C46.6082 12.4923 44.4481 14.0014 43.2229 15.2842C40.5378 18.0932 40.4887 21.6876 40.4887 21.8391C40.4844 22.8466 41.2955 23.6663 42.303 23.6705H42.3115C43.3147 23.6705 44.1301 22.8594 44.1344 21.8562C44.1344 21.8327 44.192 19.5446 45.8569 17.8029C46.8963 16.7164 48.2347 16.1871 49.8249 16.2362H49.9081C49.9209 16.2383 49.9337 16.2383 49.9465 16.2383C50.9369 16.2383 51.748 15.4464 51.7694 14.4517C51.7907 13.4443 50.9903 12.6118 49.9849 12.5905H49.9337Z" fill="#8343CC"/>
<path d="M69.4684 11.5099C69.3659 11.4886 69.2635 11.4694 69.1717 11.4459C69.1717 11.4246 68.2432 11.1919 68.1301 11.1492C67.8526 11.0425 67.5815 10.9166 67.3211 10.7735C66.8046 10.4897 66.3265 10.1332 65.906 9.72125C65.4108 9.23673 64.9946 8.67323 64.6744 8.0585C64.5207 7.76181 64.3563 7.43737 64.2752 7.11293C64.2048 6.83972 64.1365 6.56651 64.0661 6.29543C64.0084 6.06918 63.9828 5.83225 63.8611 5.62947C63.6498 5.27942 63.2635 5.05957 62.8558 5.05957C62.4204 5.05957 62.0148 5.30717 61.8142 5.69351C61.6989 5.91336 61.6733 6.17803 61.6093 6.41709C61.4684 6.94431 61.3339 7.44164 61.0906 7.93257C60.8281 8.46619 60.4908 8.96352 60.0938 9.40749C59.2763 10.321 58.1963 11.0147 57.0095 11.3221C56.7683 11.384 56.5271 11.448 56.2859 11.5099C56.0874 11.5612 55.9188 11.5975 55.7523 11.7234C55.4599 11.9432 55.2827 12.2954 55.2827 12.6604C55.2827 13.0083 55.4428 13.3434 55.7096 13.5676C56.0831 13.8771 56.5783 13.8557 57.0202 13.9795C57.3041 14.0585 57.5815 14.1545 57.8505 14.2719C58.382 14.5003 58.8836 14.8013 59.3361 15.1599C60.2411 15.8813 60.9476 16.8397 61.3638 17.9198C61.5517 18.4064 61.6498 18.9037 61.748 19.4139C61.8398 19.892 62.3948 20.2164 62.8515 20.2164C63.2379 20.2164 63.6413 20.0073 63.8505 19.6743C63.9657 19.4886 63.9828 19.2004 64.034 18.987C64.1173 18.6305 64.1941 18.2783 64.3243 17.9368C64.4289 17.6615 64.5527 17.3925 64.6957 17.1343C64.9753 16.622 65.3254 16.1481 65.7331 15.7277C66.2112 15.2325 66.7683 14.8162 67.3766 14.4939C67.6797 14.3338 67.9999 14.1972 68.3222 14.082C68.6957 13.9496 69.1119 13.8856 69.4983 13.7917C69.7822 13.7234 70.002 13.6295 70.192 13.3968C70.3606 13.1898 70.4524 12.9272 70.4524 12.6604C70.4524 12.2527 70.2368 11.8856 69.8996 11.6636C69.7758 11.5825 69.6221 11.542 69.4663 11.5078L69.4684 11.5099Z" fill="#8343CC"/>
</svg>
