<svg width="38" height="36" viewBox="0 0 38 36" fill="none" xmlns="http://www.w3.org/2000/svg">
<path d="M34.6733 32.0619L30.2293 27.5091C31.2261 26.2796 32.0436 24.9221 32.6647 23.4557C33.3605 21.8079 33.7853 20.0811 33.9326 18.3052L30.2912 18.0832C29.685 24.8303 24.0158 30.1195 17.1108 30.1195C9.80027 30.1195 3.87497 24.1942 3.87497 16.8837C3.87497 9.5731 9.80027 3.64781 17.1108 3.64781C18.5986 3.64781 20.0308 3.89327 21.3648 4.34578L23.0959 1.09498C21.1855 0.369264 19.1749 0 17.1087 0C14.8312 0 12.6199 0.446105 10.5366 1.32764C8.52598 2.17716 6.72021 3.39594 5.17059 4.94343C3.62096 6.49306 2.40433 8.29882 1.55481 10.3095C0.673271 12.3927 0.227173 14.604 0.227173 16.8815C0.227173 19.159 0.673271 21.3703 1.55481 23.4536C2.40433 25.4642 3.6231 27.27 5.17059 28.8196C6.72021 30.3692 8.52598 31.5859 10.5366 32.4354C12.6199 33.3169 14.8312 33.763 17.1087 33.763C19.3862 33.763 21.5975 33.3169 23.6807 32.4354C25.1108 31.8314 26.4363 31.0395 27.6402 30.0768L32.0628 34.6062C32.4192 34.9712 32.8931 35.1547 33.367 35.1547C33.8408 35.1547 34.2869 34.9818 34.6412 34.636C35.3627 33.9317 35.3755 32.7791 34.6711 32.0576L34.6733 32.0619Z" fill="#8343CC"/>
<path d="M16.9337 7.59049C13.6082 7.4923 11.4481 9.00138 10.2229 10.2842C7.53777 13.0932 7.48866 16.6876 7.48866 16.8391C7.4844 17.8466 8.29549 18.6663 9.30296 18.6705H9.31151C10.3147 18.6705 11.1301 17.8594 11.1344 16.8562C11.1344 16.8327 11.192 14.5446 12.8569 12.8029C13.8963 11.7164 15.2347 11.1871 16.8249 11.2362H16.9081C16.9209 11.2383 16.9337 11.2383 16.9465 11.2383C17.9369 11.2383 18.748 10.4464 18.7694 9.45175C18.7907 8.44428 17.9903 7.61183 16.9849 7.59049H16.9337Z" fill="#8343CC"/>
<path d="M36.4684 6.50994C36.3659 6.4886 36.2635 6.46938 36.1717 6.44591C36.1717 6.42456 35.2432 6.1919 35.1301 6.14921C34.8526 6.04249 34.5815 5.91656 34.3211 5.77355C33.8046 5.48966 33.3265 5.13321 32.906 4.72125C32.4108 4.23673 31.9946 3.67323 31.6744 3.0585C31.5207 2.76181 31.3563 2.43737 31.2752 2.11293C31.2048 1.83972 31.1365 1.56651 31.0661 1.29543C31.0084 1.06918 30.9828 0.832248 30.8611 0.629474C30.6498 0.27942 30.2635 0.0595703 29.8558 0.0595703C29.4204 0.0595703 29.0148 0.307169 28.8142 0.693508C28.6989 0.913359 28.6733 1.17803 28.6093 1.41709C28.4684 1.94431 28.3339 2.44164 28.0906 2.93257C27.8281 3.46619 27.4908 3.96352 27.0938 4.40749C26.2763 5.32104 25.1963 6.01474 24.0095 6.32211C23.7683 6.38401 23.5271 6.44804 23.2859 6.50994C23.0874 6.56117 22.9188 6.59745 22.7523 6.72339C22.4599 6.94324 22.2827 7.29542 22.2827 7.66042C22.2827 8.00834 22.4428 8.34345 22.7096 8.56757C23.0831 8.87707 23.5783 8.85572 24.0202 8.97952C24.3041 9.0585 24.5815 9.15455 24.8505 9.27194C25.382 9.50033 25.8836 9.80129 26.3361 10.1599C27.2411 10.8813 27.9476 11.8397 28.3638 12.9198C28.5517 13.4064 28.6498 13.9037 28.748 14.4139C28.8398 14.892 29.3948 15.2164 29.8515 15.2164C30.2379 15.2164 30.6413 15.0073 30.8505 14.6743C30.9657 14.4886 30.9828 14.2004 31.034 13.987C31.1173 13.6305 31.1941 13.2783 31.3243 12.9368C31.4289 12.6615 31.5527 12.3925 31.6957 12.1343C31.9753 11.622 32.3254 11.1481 32.7331 10.7277C33.2112 10.2325 33.7683 9.81623 34.3766 9.49393C34.6797 9.33384 34.9999 9.19724 35.3222 9.08198C35.6957 8.94964 36.1119 8.88561 36.4983 8.79169C36.7822 8.72339 37.002 8.62947 37.192 8.39681C37.3606 8.18977 37.4524 7.92723 37.4524 7.66042C37.4524 7.25274 37.2368 6.88561 36.8996 6.66362C36.7758 6.58251 36.6221 6.54196 36.4663 6.50781L36.4684 6.50994Z" fill="#8343CC"/>
</svg>
