<svg width="56" height="54" viewBox="0 0 56 54" fill="none" xmlns="http://www.w3.org/2000/svg">
<g clip-path="url(#clip0_8554_14114)">
<path d="M53.9702 42.0273L37.0464 42.0558C36.3344 42.0558 35.7607 42.6259 35.7607 43.3303V52.7215C35.7607 53.4259 36.3365 53.9959 37.0464 53.9959L53.9702 53.9674C54.6822 53.9674 55.2559 53.3974 55.2559 52.693V43.3018C55.2559 42.5974 54.6801 42.0273 53.9702 42.0273Z" fill="#0077B5"/>
<path d="M53.5079 43.6729H51.6506V52.3454H53.5079V43.6729Z" fill="#F8FAFD"/>
<path d="M43.7387 44.9203C43.4767 44.5071 43.1196 44.1874 42.6698 43.9635L42.6739 43.9696C42.224 43.7457 41.7184 43.6357 41.1633 43.6357H37.4797V52.3429H39.4443V49.1711H41.1592C41.7143 49.1711 42.2199 49.0612 42.6698 48.8373C43.1196 48.6133 43.4767 48.2978 43.7387 47.8804C44.0008 47.4671 44.1329 46.9724 44.1329 46.4065C44.1329 45.8405 44.0008 45.3356 43.7387 44.9183V44.9203ZM42.4655 46.5877C42.4221 46.6406 42.3705 46.661 42.3066 46.6773C42.2199 46.6976 42.125 46.7098 42.0404 46.7404C41.9702 46.7668 41.8959 46.7974 41.8278 46.834C41.6937 46.9073 41.5657 47.0009 41.4584 47.1109C41.3635 47.2045 41.2871 47.3104 41.2232 47.4244C41.1901 47.4834 41.1633 47.5445 41.1386 47.6035C41.1076 47.6768 41.0911 47.7562 41.0705 47.8377C41.0601 47.8845 41.056 47.9517 41.0292 47.9904C40.9817 48.0636 40.8909 48.1105 40.8042 48.1105C40.699 48.1105 40.5752 48.0372 40.5546 47.9313C40.5319 47.8173 40.5112 47.7074 40.4679 47.5974C40.373 47.3572 40.2161 47.1414 40.0098 46.9806C39.9045 46.8971 39.7951 46.8299 39.6734 46.7811C39.6135 46.7546 39.5496 46.7302 39.4856 46.7139C39.3845 46.6834 39.273 46.6915 39.1905 46.6202C39.1306 46.5694 39.0935 46.494 39.0935 46.4167C39.0935 46.3332 39.1306 46.2558 39.1987 46.207C39.2359 46.1805 39.2751 46.1703 39.3205 46.1602C39.3742 46.1439 39.4278 46.1296 39.4815 46.1174C39.7497 46.0482 39.9932 45.8914 40.1769 45.6878C40.2677 45.5881 40.342 45.4782 40.4018 45.358C40.4555 45.2481 40.4885 45.1341 40.5195 45.0181C40.5339 44.9651 40.5401 44.9041 40.5669 44.8552C40.6144 44.7677 40.7052 44.7127 40.8022 44.7127C40.893 44.7127 40.9797 44.7636 41.0271 44.8389C41.0539 44.8857 41.0601 44.9387 41.0746 44.9896C41.0911 45.0486 41.1055 45.1137 41.122 45.1728C41.1427 45.242 41.1798 45.3153 41.2128 45.3825C41.2871 45.5229 41.3821 45.6492 41.4914 45.755C41.5864 45.8487 41.6937 45.9281 41.8113 45.9912C41.8691 46.0217 41.9289 46.0502 41.9929 46.0747C42.0197 46.0848 42.2282 46.1378 42.2282 46.1418C42.2488 46.1459 42.2715 46.152 42.2963 46.1561L42.3024 46.1703C42.3355 46.1764 42.3726 46.1866 42.3994 46.2029C42.4758 46.2538 42.5233 46.3373 42.5233 46.4268C42.5233 46.4838 42.5006 46.5429 42.4634 46.5897L42.4655 46.5877Z" fill="#F8FAFD"/>
<path d="M48.6976 46.4818V46.9683L48.6935 46.9582C48.5346 46.8075 48.3509 46.6813 48.1404 46.5815C47.8205 46.4288 47.4573 46.3535 47.0632 46.3535C46.5184 46.3535 46.0314 46.4838 45.6063 46.7464C45.1812 47.009 44.8407 47.3694 44.5951 47.8336C44.3475 48.2977 44.2236 48.823 44.2236 49.4113C44.2236 49.9997 44.3495 50.5229 44.5951 50.9769C44.8427 51.4308 45.1812 51.7932 45.6125 52.064C46.0438 52.3347 46.5246 52.4691 47.0632 52.4691C47.4677 52.4691 47.835 52.3938 48.1549 52.2411C48.3633 52.1434 48.5408 52.0192 48.6997 51.8746V52.351H50.5383V46.4797H48.6997L48.6976 46.4818ZM48.2436 50.4536C47.9794 50.7346 47.6348 50.8751 47.1994 50.8751L47.1953 50.8791C46.9187 50.8791 46.6752 50.814 46.4565 50.6857C46.2398 50.5575 46.0644 50.3783 45.9364 50.1503C45.8085 49.9223 45.7425 49.6597 45.7425 49.3686C45.7425 49.0774 45.8085 48.8189 45.9364 48.5868C46.0644 48.3588 46.2398 48.1776 46.4565 48.0514C46.6732 47.9231 46.9208 47.858 47.1953 47.858C47.4697 47.858 47.7318 47.9231 47.9526 48.0514C48.1734 48.1796 48.3447 48.3547 48.4603 48.5807C48.5758 48.8067 48.6357 49.0632 48.6357 49.3543C48.6357 49.8022 48.5036 50.1686 48.2436 50.4516V50.4536Z" fill="#F8FAFD"/>
<path d="M3.26879 52.5956C2.55065 52.5956 1.93362 52.4795 1.41772 52.2474C0.901807 52.0154 0.429235 51.6632 0 51.1909L1.26294 49.9571C1.5436 50.2747 1.8552 50.5211 2.19777 50.6962C2.54033 50.8712 2.93861 50.9588 3.39261 50.9588C3.80534 50.9588 4.1252 50.8855 4.3522 50.7389C4.5792 50.5923 4.6927 50.3887 4.6927 50.1282C4.6927 49.892 4.61841 49.7006 4.46983 49.5541C4.32125 49.4075 4.1252 49.2813 3.88169 49.1754C3.63818 49.0695 3.36991 48.9677 3.07687 48.87C2.78384 48.7723 2.49287 48.6603 2.20396 48.5341C1.91505 48.4079 1.64884 48.2491 1.40533 48.0577C1.16182 47.8664 0.96578 47.6261 0.817198 47.3371C0.668617 47.048 0.594326 46.6836 0.594326 46.2438C0.594326 45.7145 0.724335 45.2585 0.984352 44.8758C1.24437 44.493 1.60551 44.2019 2.06776 44.0024C2.53001 43.8029 3.06243 43.7031 3.66501 43.7031C4.26759 43.7031 4.83509 43.809 5.34274 44.0207C5.8504 44.2324 6.26931 44.5215 6.59949 44.888L5.33655 46.1217C5.07241 45.8529 4.8062 45.6534 4.53793 45.5231C4.26965 45.3929 3.9663 45.3277 3.62786 45.3277C3.28943 45.3277 3.02116 45.3908 2.82305 45.517C2.62494 45.6433 2.52589 45.8244 2.52589 46.0606C2.52589 46.2805 2.60018 46.4576 2.74876 46.5919C2.89734 46.7263 3.09338 46.8424 3.33689 46.9401C3.5804 47.0378 3.84867 47.1355 4.14171 47.2332C4.43474 47.3309 4.72572 47.445 5.01463 47.5752C5.30353 47.7055 5.56974 47.8704 5.81325 48.0699C6.05676 48.2695 6.2528 48.5219 6.40139 48.8273C6.54997 49.1326 6.62426 49.5093 6.62426 49.9571C6.62426 50.7796 6.3271 51.425 5.73277 51.8932C5.13844 52.3614 4.31712 52.5956 3.26879 52.5956Z" fill="#333333"/>
<path d="M10.5493 52.5948C9.9302 52.5948 9.37096 52.4584 8.87156 52.1856C8.37216 51.9128 7.97801 51.5403 7.6891 51.068C7.40019 50.5956 7.25574 50.0663 7.25574 49.48C7.25574 48.8937 7.40019 48.3685 7.6891 47.9043C7.97801 47.4401 8.3701 47.0716 8.86537 46.7988C9.36064 46.5261 9.92195 46.3896 10.5493 46.3896C11.1766 46.3896 11.7379 46.524 12.2332 46.7927C12.7285 47.0615 13.1206 47.43 13.4095 47.8982C13.6984 48.3664 13.8429 48.8937 13.8429 49.48C13.8429 50.0663 13.6984 50.5956 13.4095 51.068C13.1206 51.5403 12.7285 51.9128 12.2332 52.1856C11.7379 52.4584 11.1766 52.5948 10.5493 52.5948ZM10.5493 50.8969C10.8217 50.8969 11.0611 50.8379 11.2674 50.7198C11.4738 50.6018 11.6327 50.4348 11.7441 50.219C11.8556 50.0032 11.9113 49.7569 11.9113 49.48C11.9113 49.2031 11.8535 48.9609 11.7379 48.7532C11.6224 48.5456 11.4635 48.3827 11.2612 48.2646C11.059 48.1466 10.8217 48.0875 10.5493 48.0875C10.2769 48.0875 10.0499 48.1466 9.84353 48.2646C9.63717 48.3827 9.47621 48.5476 9.36064 48.7593C9.24508 48.9711 9.1873 49.2154 9.1873 49.4922C9.1873 49.7691 9.24508 50.0032 9.36064 50.219C9.47621 50.4348 9.63717 50.6018 9.84353 50.7198C10.0499 50.8379 10.2851 50.8969 10.5493 50.8969Z" fill="#333333"/>
<path d="M17.6936 52.5948C17.0745 52.5948 16.5132 52.4604 16.0097 52.1917C15.5062 51.923 15.11 51.5525 14.8211 51.0802C14.5321 50.6079 14.3877 50.0785 14.3877 49.4922C14.3877 48.9059 14.5342 48.3664 14.8272 47.8982C15.1203 47.43 15.5186 47.0615 16.0221 46.7927C16.5256 46.524 17.0911 46.3896 17.7184 46.3896C18.1889 46.3896 18.6202 46.469 19.0123 46.6278C19.4044 46.7866 19.7531 47.0248 20.0586 47.3424L18.8451 48.5395C18.7048 48.3847 18.5418 48.2707 18.3561 48.1975C18.1703 48.1242 17.9578 48.0875 17.7184 48.0875C17.446 48.0875 17.2046 48.1466 16.9941 48.2646C16.7836 48.3827 16.6185 48.5456 16.4988 48.7532C16.3791 48.9609 16.3193 49.2031 16.3193 49.48C16.3193 49.7569 16.3791 50.0012 16.4988 50.2129C16.6185 50.4246 16.7856 50.5916 17.0003 50.7137C17.2149 50.8359 17.4543 50.8969 17.7184 50.8969C17.966 50.8969 18.1868 50.8542 18.3808 50.7687C18.5748 50.6832 18.742 50.5631 18.8823 50.4083L20.0833 51.6054C19.7696 51.9311 19.4147 52.1775 19.0185 52.3444C18.6223 52.5113 18.1807 52.5948 17.6936 52.5948Z" fill="#333333"/>
<path d="M21.8786 45.7064C21.5815 45.7064 21.3359 45.6066 21.1419 45.4071C20.9479 45.2076 20.851 44.9654 20.851 44.6803C20.851 44.3953 20.9479 44.1429 21.1419 43.9475C21.3359 43.752 21.5815 43.6543 21.8786 43.6543C22.1758 43.6543 22.4193 43.752 22.6092 43.9475C22.799 44.1429 22.8939 44.3872 22.8939 44.6803C22.8939 44.9735 22.799 45.2076 22.6092 45.4071C22.4193 45.6066 22.1758 45.7064 21.8786 45.7064ZM20.9252 52.4612V46.5248H22.8197V52.4612H20.9252Z" fill="#333333"/>
<path d="M26.6704 52.5831C26.1173 52.5831 25.6241 52.4487 25.1907 52.18C24.7574 51.9113 24.4148 51.5448 24.163 51.0806C23.9113 50.6165 23.7854 50.0872 23.7854 49.4927C23.7854 48.8983 23.9113 48.3689 24.163 47.9048C24.4148 47.4406 24.7574 47.0742 25.1907 46.8054C25.6241 46.5367 26.1173 46.4023 26.6704 46.4023C27.0748 46.4023 27.4401 46.4797 27.7661 46.6344C28.0922 46.7892 28.3584 47.0029 28.5648 47.2757C28.7711 47.5485 28.8867 47.86 28.9115 48.2101V50.7753C28.8867 51.1254 28.7732 51.4369 28.571 51.7097C28.3687 51.9825 28.1025 52.1963 27.7723 52.351C27.4422 52.5057 27.0748 52.5831 26.6704 52.5831ZM27.0542 50.8974C27.4587 50.8974 27.7847 50.7651 28.0324 50.5004C28.28 50.2358 28.4038 49.8999 28.4038 49.4927C28.4038 49.2158 28.3481 48.9715 28.2367 48.7598C28.1252 48.5481 27.9684 48.3832 27.7661 48.2651C27.5639 48.147 27.3307 48.088 27.0666 48.088C26.8024 48.088 26.5692 48.147 26.367 48.2651C26.1648 48.3832 26.0038 48.5481 25.8841 48.7598C25.7644 48.9715 25.7046 49.2158 25.7046 49.4927C25.7046 49.7696 25.7624 50.0017 25.8779 50.2134C25.9935 50.4251 26.1544 50.5921 26.3608 50.7142C26.5672 50.8364 26.7983 50.8974 27.0542 50.8974ZM28.3295 52.4609V50.8608L28.6143 49.4194L28.3295 47.9781V46.5245H30.1868V52.4609H28.3295Z" fill="#333333"/>
<path d="M31.524 52.4608V43.5928H33.4185V52.4608H31.524Z" fill="#333333"/>
<path d="M41.0621 7.53836C40.9878 7.52207 40.9155 7.50986 40.8474 7.49154C40.8474 7.47525 40.1768 7.31035 40.0942 7.27981C39.894 7.20449 39.698 7.11491 39.5081 7.01108C39.1346 6.8075 38.79 6.55506 38.4846 6.2619C38.1276 5.91582 37.8263 5.51476 37.5952 5.07706C37.4837 4.86533 37.3661 4.63529 37.3062 4.4032C37.2567 4.20777 37.2051 4.01436 37.1556 3.81893C37.1143 3.6581 37.0958 3.48709 37.007 3.34458C36.8543 3.09418 36.5757 2.93945 36.2806 2.93945C35.967 2.93945 35.6719 3.11657 35.5274 3.3914C35.4449 3.54816 35.4242 3.73749 35.3788 3.90647C35.2777 4.28309 35.1786 4.63732 35.0053 4.98748C34.8154 5.36818 34.5719 5.72241 34.2851 6.03796C33.6928 6.68943 32.9148 7.18413 32.0564 7.404C31.883 7.44878 31.7076 7.49357 31.5343 7.53836C31.3898 7.57501 31.2701 7.59943 31.1484 7.69105C30.9358 7.8478 30.8099 8.09821 30.8099 8.35879C30.8099 8.60716 30.9255 8.84535 31.1195 9.00415C31.3898 9.22605 31.7468 9.20976 32.0667 9.2973C32.271 9.35227 32.4712 9.42353 32.6672 9.50496C33.051 9.66782 33.4142 9.88158 33.7403 10.1381C34.3945 10.6511 34.9062 11.3352 35.2055 12.1067C35.3417 12.4549 35.4139 12.8071 35.4841 13.1735C35.5501 13.5135 35.9504 13.7456 36.2827 13.7456C36.5633 13.7456 36.8543 13.5969 37.0029 13.3588C37.0854 13.2264 37.0999 13.0208 37.135 12.8681C37.1969 12.6136 37.2505 12.3632 37.3455 12.1189C37.4218 11.9215 37.5106 11.7321 37.6137 11.5469C37.816 11.1825 38.0698 10.8445 38.3628 10.5453C38.7095 10.1931 39.1119 9.89583 39.5515 9.66579C39.7702 9.55178 40.0014 9.45406 40.2345 9.37263C40.5049 9.27898 40.8041 9.23216 41.0848 9.16701C41.2891 9.11815 41.45 9.05097 41.5862 8.88403C41.708 8.73542 41.7761 8.55016 41.7761 8.35879C41.7761 8.06767 41.6213 7.80505 41.3757 7.64829C41.287 7.59129 41.1756 7.56075 41.0621 7.53632V7.53836Z" fill="#0077B5"/>
<path d="M36.2931 1.38639C40.1954 1.38639 43.359 4.50729 43.359 8.35702C43.359 12.2067 40.1954 15.3277 36.2931 15.3277C32.3908 15.3277 29.2272 12.2067 29.2272 8.35702C29.2272 4.50729 32.3908 1.38639 36.2931 1.38639ZM36.2931 0C31.621 0 27.8219 3.74997 27.8219 8.35702C27.8219 12.9641 31.6231 16.714 36.2931 16.714C40.9631 16.714 44.7643 12.9641 44.7643 8.35702C44.7643 3.74997 40.9631 0 36.2931 0Z" fill="#0077B5"/>
<path d="M17.1137 19.7513C18.8928 19.7513 20.335 18.3285 20.335 16.5734C20.335 14.8183 18.8928 13.3955 17.1137 13.3955C15.3346 13.3955 13.8923 14.8183 13.8923 16.5734C13.8923 18.3285 15.3346 19.7513 17.1137 19.7513Z" fill="#0077B5"/>
<path d="M17.1137 10.8004C21.016 10.8004 24.1795 13.9213 24.1795 17.771C24.1795 21.6207 21.016 24.7416 17.1137 24.7416C13.2113 24.7416 10.0478 21.6207 10.0478 17.771C10.0478 13.9213 13.2113 10.8004 17.1137 10.8004ZM17.1137 9.41602C12.4416 9.41602 8.64246 13.166 8.64246 17.773C8.64246 22.3801 12.4437 26.1301 17.1137 26.1301C21.7837 26.1301 25.5849 22.3801 25.5849 17.773C25.5849 13.166 21.7837 9.41602 17.1137 9.41602Z" fill="#0077B5"/>
<path d="M17.1137 24.743C19.1835 24.743 21.0449 23.8655 22.3367 22.4669C22.0726 21.2821 21.404 20.2458 20.4815 19.5068C19.6581 20.427 18.455 21.0113 17.1137 21.0113C15.7723 21.0113 14.5692 20.427 13.7458 19.5068C12.8234 20.2458 12.1548 21.2821 11.8906 22.4669C13.1825 23.8655 15.0439 24.743 17.1137 24.743Z" fill="#0077B5"/>
<path d="M36.2931 29.2855C38.0722 29.2855 39.5144 27.8627 39.5144 26.1076C39.5144 24.3525 38.0722 22.9297 36.2931 22.9297C34.514 22.9297 33.0718 24.3525 33.0718 26.1076C33.0718 27.8627 34.514 29.2855 36.2931 29.2855Z" fill="#0077B5"/>
<path d="M36.2931 20.3356C40.1954 20.3356 43.359 23.4565 43.359 27.3062C43.359 31.156 40.1954 34.2769 36.2931 34.2769C32.3908 34.2769 29.2272 31.156 29.2272 27.3062C29.2272 23.4565 32.3908 20.3356 36.2931 20.3356ZM36.2931 18.9492C31.621 18.9492 27.8219 22.6992 27.8219 27.3062C27.8219 31.9133 31.6231 35.6633 36.2931 35.6633C40.9631 35.6633 44.7643 31.9133 44.7643 27.3062C44.7643 22.6992 40.9631 18.9492 36.2931 18.9492Z" fill="#0077B5"/>
<path d="M36.2931 34.2791C38.3629 34.2791 40.2243 33.4016 41.5162 32.003C41.252 30.8182 40.5834 29.782 39.661 29.043C38.8376 29.9632 37.6345 30.5474 36.2931 30.5474C34.9518 30.5474 33.7487 29.9632 32.9253 29.043C32.0028 29.782 31.3342 30.8182 31.0701 32.003C32.3619 33.4016 34.2233 34.2791 36.2931 34.2791Z" fill="#0077B5"/>
<path d="M23.4159 22.294L22.8466 23.5615L28.1953 25.8998L28.7647 24.6323L23.4159 22.294Z" fill="#0077B5"/>
<path d="M28.0369 9.47658L22.9303 12.0957L23.5786 13.3258L28.6851 10.7067L28.0369 9.47658Z" fill="#0077B5"/>
</g>
<defs>
<clipPath id="clip0_8554_14114">
<rect width="55.2558" height="54" fill="white"/>
</clipPath>
</defs>
</svg>
