<svg width="37" height="36" viewBox="0 0 37 36" fill="none" xmlns="http://www.w3.org/2000/svg">
<path d="M33.0621 7.53836C32.9878 7.52207 32.9155 7.50986 32.8474 7.49154C32.8474 7.47525 32.1768 7.31035 32.0942 7.27981C31.894 7.20449 31.698 7.11491 31.5081 7.01108C31.1346 6.8075 30.79 6.55506 30.4846 6.2619C30.1276 5.91582 29.8263 5.51476 29.5952 5.07706C29.4837 4.86533 29.3661 4.63529 29.3062 4.4032C29.2567 4.20777 29.2051 4.01436 29.1556 3.81893C29.1143 3.6581 29.0958 3.48709 29.007 3.34458C28.8543 3.09418 28.5757 2.93945 28.2806 2.93945C27.967 2.93945 27.6719 3.11657 27.5274 3.3914C27.4449 3.54816 27.4242 3.73749 27.3788 3.90647C27.2777 4.28309 27.1786 4.63732 27.0053 4.98748C26.8154 5.36818 26.5719 5.72241 26.2851 6.03796C25.6928 6.68943 24.9148 7.18413 24.0564 7.404C23.883 7.44878 23.7076 7.49357 23.5343 7.53836C23.3898 7.57501 23.2701 7.59943 23.1484 7.69105C22.9358 7.8478 22.8099 8.09821 22.8099 8.35879C22.8099 8.60716 22.9255 8.84535 23.1195 9.00415C23.3898 9.22605 23.7468 9.20976 24.0667 9.2973C24.271 9.35227 24.4712 9.42353 24.6672 9.50496C25.051 9.66782 25.4142 9.88158 25.7403 10.1381C26.3945 10.6511 26.9062 11.3352 27.2055 12.1067C27.3417 12.4549 27.4139 12.8071 27.4841 13.1735C27.5501 13.5135 27.9504 13.7456 28.2827 13.7456C28.5633 13.7456 28.8543 13.5969 29.0029 13.3588C29.0854 13.2264 29.0999 13.0208 29.135 12.8681C29.1969 12.6136 29.2505 12.3632 29.3455 12.1189C29.4218 11.9215 29.5106 11.7321 29.6137 11.5469C29.816 11.1825 30.0698 10.8445 30.3628 10.5453C30.7095 10.1931 31.1119 9.89583 31.5515 9.66579C31.7702 9.55178 32.0014 9.45406 32.2345 9.37263C32.5049 9.27898 32.8041 9.23216 33.0848 9.16701C33.2891 9.11815 33.45 9.05097 33.5862 8.88403C33.708 8.73542 33.7761 8.55016 33.7761 8.35879C33.7761 8.06767 33.6213 7.80505 33.3757 7.64829C33.287 7.59129 33.1756 7.56075 33.0621 7.53632V7.53836Z" fill="#0077B5"/>
<path d="M28.2931 1.38639C32.1954 1.38639 35.359 4.50729 35.359 8.35702C35.359 12.2067 32.1954 15.3277 28.2931 15.3277C24.3908 15.3277 21.2272 12.2067 21.2272 8.35702C21.2272 4.50729 24.3908 1.38639 28.2931 1.38639ZM28.2931 0C23.621 0 19.8219 3.74997 19.8219 8.35702C19.8219 12.9641 23.6231 16.714 28.2931 16.714C32.9631 16.714 36.7643 12.9641 36.7643 8.35702C36.7643 3.74997 32.9631 0 28.2931 0Z" fill="#0077B5"/>
<path d="M9.11366 19.7513C10.8928 19.7513 12.335 18.3285 12.335 16.5734C12.335 14.8183 10.8928 13.3955 9.11366 13.3955C7.33457 13.3955 5.89233 14.8183 5.89233 16.5734C5.89233 18.3285 7.33457 19.7513 9.11366 19.7513Z" fill="#0077B5"/>
<path d="M9.11367 10.8004C13.016 10.8004 16.1795 13.9213 16.1795 17.771C16.1795 21.6207 13.016 24.7416 9.11367 24.7416C5.21134 24.7416 2.04779 21.6207 2.04779 17.771C2.04779 13.9213 5.21134 10.8004 9.11367 10.8004ZM9.11367 9.41602C4.4416 9.41602 0.642456 13.166 0.642456 17.773C0.642456 22.3801 4.44367 26.1301 9.11367 26.1301C13.7837 26.1301 17.5849 22.3801 17.5849 17.773C17.5849 13.166 13.7837 9.41602 9.11367 9.41602Z" fill="#0077B5"/>
<path d="M9.11368 24.743C11.1835 24.743 13.0449 23.8655 14.3367 22.4669C14.0726 21.2821 13.404 20.2458 12.4815 19.5068C11.6581 20.427 10.455 21.0113 9.11368 21.0113C7.77232 21.0113 6.56922 20.427 5.74583 19.5068C4.82339 20.2458 4.15477 21.2821 3.89062 22.4669C5.18246 23.8655 7.04385 24.743 9.11368 24.743Z" fill="#0077B5"/>
<path d="M28.2931 29.2855C30.0722 29.2855 31.5144 27.8627 31.5144 26.1076C31.5144 24.3525 30.0722 22.9297 28.2931 22.9297C26.514 22.9297 25.0718 24.3525 25.0718 26.1076C25.0718 27.8627 26.514 29.2855 28.2931 29.2855Z" fill="#0077B5"/>
<path d="M28.2931 20.3356C32.1954 20.3356 35.359 23.4565 35.359 27.3062C35.359 31.156 32.1954 34.2769 28.2931 34.2769C24.3908 34.2769 21.2272 31.156 21.2272 27.3062C21.2272 23.4565 24.3908 20.3356 28.2931 20.3356ZM28.2931 18.9492C23.621 18.9492 19.8219 22.6992 19.8219 27.3062C19.8219 31.9133 23.6231 35.6633 28.2931 35.6633C32.9631 35.6633 36.7643 31.9133 36.7643 27.3062C36.7643 22.6992 32.9631 18.9492 28.2931 18.9492Z" fill="#0077B5"/>
<path d="M28.2931 34.2791C30.3629 34.2791 32.2243 33.4016 33.5162 32.003C33.252 30.8182 32.5834 29.782 31.661 29.043C30.8376 29.9632 29.6345 30.5474 28.2931 30.5474C26.9518 30.5474 25.7487 29.9632 24.9253 29.043C24.0028 29.782 23.3342 30.8182 23.0701 32.003C24.3619 33.4016 26.2233 34.2791 28.2931 34.2791Z" fill="#0077B5"/>
<path d="M15.4159 22.294L14.8466 23.5615L20.1953 25.8998L20.7647 24.6323L15.4159 22.294Z" fill="#0077B5"/>
<path d="M20.0369 9.47658L14.9303 12.0957L15.5786 13.3258L20.6851 10.7067L20.0369 9.47658Z" fill="#0077B5"/>
</svg>
